<svg width="165" height="44" viewBox="0 0 165 44" fill="none" xmlns="http://www.w3.org/2000/svg">
<path d="M13.52 34.2C12.4267 34.2 11.3467 33.9733 10.28 33.52C9.21333 33.0667 8.26667 32.44 7.44 31.64C6.64 30.8133 6.02667 29.8933 5.6 28.88C5.44 29.0933 5.18667 29.44 4.84 29.92C4.49333 30.4 4.13333 30.8667 3.76 31.32C3.41333 31.7467 3.13333 32.04 2.92 32.2C2.65333 32.3867 2.36 32.5467 2.04 32.68C1.74667 32.8133 1.45333 32.88 1.16 32.88C0.44 32.88 0.08 32.52 0.08 31.8C0.08 31.6133 0.106667 31.44 0.16 31.28C0.213333 31.0933 0.266667 30.9067 0.32 30.72C0.853333 29.2267 1.6 27.6667 2.56 26.04C3.52 24.4133 4.45333 22.96 5.36 21.68C4.69333 20.48 4.13333 19.1067 3.68 17.56C3.25333 15.9867 3.04 14.52 3.04 13.16C3.04 12.36 3.13333 11.56 3.32 10.76C3.53333 9.96 3.90667 9.30666 4.44 8.8C4.97333 8.26667 5.72 8 6.68 8C7.61333 8 8.6 8.24 9.64 8.72C10.68 9.2 11.68 9.78667 12.64 10.48C13.6 11.1733 14.3867 11.8533 15 12.52C15.2667 12.36 15.68 12.1333 16.24 11.84C16.8 11.52 17.3467 11.24 17.88 11C18.44 10.76 18.8533 10.64 19.12 10.64C19.5467 10.64 19.76 10.8533 19.76 11.28C19.76 11.3867 19.72 11.5333 19.64 11.72C19.5867 11.9067 19.4667 12 19.28 12C19.0667 12 18.96 11.9067 18.96 11.72C18.96 11.64 18.9867 11.5733 19.04 11.52C19.12 11.44 19.16 11.3867 19.16 11.36C19.16 11.28 19.1333 11.24 19.08 11.24C18.8667 11.24 18.5067 11.3733 18 11.64C17.52 11.88 17.04 12.16 16.56 12.48C16.08 12.7733 15.7467 12.9867 15.56 13.12C16.5467 14.2133 17.4267 15.4667 18.2 16.88C19 18.2667 19.6267 19.7333 20.08 21.28C20.5333 22.8 20.76 24.32 20.76 25.84C20.76 26.9067 20.6 27.9867 20.28 29.08C19.96 30.1467 19.4133 31.0933 18.64 31.92C17.2533 33.44 15.5467 34.2 13.52 34.2ZM5.92 20.96C7.09333 19.3867 8.38667 17.92 9.8 16.56C11.24 15.2 12.7733 13.9867 14.4 12.92C13.8933 12.3333 13.2267 11.7333 12.4 11.12C11.6 10.48 10.7467 9.94667 9.84 9.52C8.93333 9.06666 8.08 8.84 7.28 8.84C6.45333 8.84 5.81333 9.09333 5.36 9.6C4.93333 10.1067 4.64 10.72 4.48 11.44C4.34667 12.16 4.28 12.8533 4.28 13.52C4.28 14.6933 4.42667 15.96 4.72 17.32C5.01333 18.6533 5.41333 19.8667 5.92 20.96ZM13.08 33.48C14.92 33.48 16.4667 32.7867 17.72 31.4C18.3333 30.76 18.7333 29.9333 18.92 28.92C19.1067 27.88 19.2 26.9467 19.2 26.12C19.2 23.9867 18.8133 21.7867 18.04 19.52C17.2933 17.2533 16.2533 15.2667 14.92 13.56C13.3467 14.7867 11.8667 16.16 10.48 17.68C9.12 19.2 7.84 20.76 6.64 22.36C6.98667 22.9467 7.38667 23.52 7.84 24.08C8.29333 24.64 8.81333 25.12 9.4 25.52C9.53333 25.6 9.68 25.68 9.84 25.76C10 25.84 10.16 25.9333 10.32 26.04C10.3733 26.0667 10.4133 26.1067 10.44 26.16C10.4933 26.2133 10.52 26.2667 10.52 26.32C10.52 26.48 10.4533 26.56 10.32 26.56C10.2667 26.56 10.2133 26.5467 10.16 26.52C9.38667 26.1467 8.66667 25.64 8 25C7.33333 24.3333 6.73333 23.6533 6.2 22.96C6.01333 23.2267 5.70667 23.6533 5.28 24.24C4.88 24.8267 4.42667 25.4933 3.92 26.24C3.44 26.9867 2.96 27.7467 2.48 28.52C2.02667 29.2933 1.65333 29.9867 1.36 30.6C1.06667 31.2133 0.92 31.68 0.92 32C0.92 32.1867 1.01333 32.28 1.2 32.28C1.38667 32.28 1.61333 32.2133 1.88 32.08C2.17333 31.9467 2.38667 31.8267 2.52 31.72C2.73333 31.56 3.02667 31.24 3.4 30.76C3.8 30.28 4.18667 29.7867 4.56 29.28C4.93333 28.7467 5.2 28.3733 5.36 28.16C5.33333 28.0267 5.29333 27.88 5.24 27.72C5.21333 27.56 5.2 27.4133 5.2 27.28C5.2 26.96 5.38667 26.8 5.76 26.8C5.89333 26.8 6.05333 26.8533 6.24 26.96C6.42667 27.04 6.52 27.1733 6.52 27.36C6.52 27.4667 6.45333 27.6267 6.32 27.84C6.18667 28.0267 6.09333 28.16 6.04 28.24C6.36 29.2267 6.86667 30.12 7.56 30.92C8.28 31.6933 9.12 32.3067 10.08 32.76C11.04 33.24 12.04 33.48 13.08 33.48ZM5.8 27.44V27.28L5.72 27.4C5.77333 27.4 5.8 27.4133 5.8 27.44ZM23.5281 31.48C23.3415 31.48 23.1681 31.3867 23.0081 31.2C22.8481 31.0133 22.7681 30.8267 22.7681 30.64C22.7681 30.56 22.7948 30.4667 22.8481 30.36C23.1415 29.5333 23.3815 28.5867 23.5681 27.52C23.7548 26.4267 23.8481 25.4533 23.8481 24.6C23.8481 24.0933 23.7948 23.56 23.6881 23C23.6081 22.4133 23.3548 21.9467 22.9281 21.6C22.8481 21.6 22.8081 21.5467 22.8081 21.44C22.8081 21.4133 22.8348 21.4 22.8881 21.4C22.9681 21.4 23.0348 21.4267 23.0881 21.48C23.7015 21.8533 24.0881 22.4667 24.2481 23.32C24.4348 24.1467 24.5281 24.88 24.5281 25.52C24.5281 26.1333 24.4881 26.76 24.4081 27.4C24.3281 28.04 24.2215 28.6667 24.0881 29.28V29.48C24.0881 29.48 24.0881 29.5067 24.0881 29.56C24.1148 29.5867 24.1415 29.6 24.1681 29.6C24.2215 29.6 24.2615 29.5733 24.2881 29.52C24.3148 29.4667 24.3415 29.4267 24.3681 29.4C24.7681 28.7867 25.1015 28.12 25.3681 27.4C25.6615 26.6533 25.9415 25.9333 26.2081 25.24C26.2615 25.0267 26.3681 24.8 26.5281 24.56C26.7148 24.2933 26.9415 24.16 27.2081 24.16C27.4215 24.16 27.5415 24.2667 27.5681 24.48C27.6215 24.6667 27.6481 24.8267 27.6481 24.96C27.6481 25.28 27.7148 25.56 27.8481 25.8C27.9815 26.04 28.0481 26.2 28.0481 26.28C28.0481 26.3867 27.9815 26.4533 27.8481 26.48C27.7148 26.48 27.6215 26.48 27.5681 26.48C27.3815 26.48 27.1948 26.44 27.0081 26.36C26.8481 26.2533 26.6748 26.2 26.4881 26.2C26.4081 26.2 26.3281 26.24 26.2481 26.32C26.0881 26.5867 25.9415 26.8667 25.8081 27.16C25.6748 27.4533 25.5415 27.7333 25.4081 28C25.2215 28.4267 25.0081 28.8667 24.7681 29.32C24.5548 29.7733 24.3548 30.2267 24.1681 30.68C24.1148 30.84 24.0615 31 24.0081 31.16C23.9815 31.2933 23.8748 31.4 23.6881 31.48H23.5281ZM29.4722 32.48C29.2855 32.56 29.0989 32.4667 28.9122 32.2C28.7522 31.96 28.6455 31.72 28.5922 31.48C28.5655 31.24 28.6455 31.0267 28.8322 30.84C29.0455 30.6533 29.1789 30.5467 29.2322 30.52C29.3122 30.44 29.4855 30.32 29.7522 30.16C30.0189 30 30.2989 29.8533 30.5922 29.72C30.9122 29.56 31.1389 29.4933 31.2722 29.52C31.3789 29.52 31.4322 29.56 31.4322 29.64C31.4322 29.64 31.4189 29.6533 31.3922 29.68C31.3922 29.7067 31.3789 29.7333 31.3522 29.76C31.3255 29.7867 31.2855 29.8133 31.2322 29.84C31.2055 29.8667 31.1655 29.9067 31.1122 29.96C31.0055 30.0667 30.8989 30.2267 30.7922 30.44C30.6855 30.6267 30.5655 30.9333 30.4322 31.36C30.3789 31.5467 30.2989 31.7467 30.1922 31.96C30.0855 32.1733 29.8455 32.3467 29.4722 32.48ZM44.2347 37.72C42.6614 37.72 41.3814 37.28 40.3947 36.4C39.408 35.52 38.9147 34.2667 38.9147 32.64C38.9147 31.12 39.3014 29.68 40.0747 28.32C40.8747 26.9333 41.8747 25.6933 43.0747 24.6C44.3014 23.48 45.528 22.5733 46.7547 21.88C47.4747 21.48 48.3014 21.0933 49.2347 20.72C50.168 20.32 51.088 20 51.9947 19.76C52.928 19.4933 53.728 19.36 54.3947 19.36C54.928 19.36 55.448 19.4533 55.9547 19.64C56.4614 19.8 56.768 20.0933 56.8747 20.52C56.9014 20.52 56.9147 20.5467 56.9147 20.6C56.9147 20.7867 56.7947 20.88 56.5547 20.88C56.448 20.88 56.3547 20.8133 56.2747 20.68C56.088 20.3867 55.7947 20.2 55.3947 20.12C55.0214 20.04 54.688 20 54.3947 20C53.7547 20 53.008 20.12 52.1547 20.36C51.3014 20.6 50.4614 20.9067 49.6347 21.28C48.808 21.6533 48.0747 22.0267 47.4347 22.4C46.5547 22.9067 45.6614 23.5467 44.7547 24.32C43.848 25.0933 43.0214 25.9467 42.2747 26.88C41.528 27.8133 40.9147 28.8133 40.4347 29.88C39.9814 30.92 39.7547 31.9867 39.7547 33.08C39.7547 34.36 40.128 35.3333 40.8747 36C41.648 36.6667 42.6614 37 43.9147 37C45.1147 37 46.408 36.7467 47.7947 36.24C49.1814 35.7333 50.5814 35.0667 51.9947 34.24C53.408 33.44 54.7814 32.5467 56.1147 31.56C57.4747 30.5733 58.728 29.6 59.8747 28.64C61.0214 27.68 62.008 26.8267 62.8347 26.08C62.3814 26.0267 61.9147 25.9733 61.4347 25.92C60.9547 25.8667 60.4747 25.7867 59.9947 25.68C59.7547 25.6267 59.3814 25.52 58.8747 25.36C58.368 25.2 57.9014 25.0133 57.4747 24.8C57.048 24.5867 56.8347 24.3733 56.8347 24.16C56.8347 24.0267 56.888 23.92 56.9947 23.84C57.128 23.76 57.248 23.7067 57.3547 23.68C57.6214 23.5733 58.1547 23.4667 58.9547 23.36C59.7547 23.2533 60.648 23.16 61.6347 23.08C62.648 23 63.5814 22.92 64.4347 22.84C65.3147 22.76 65.9547 22.7067 66.3547 22.68C67.208 21.8267 68.0347 20.9333 68.8347 20C69.6347 19.0667 70.408 18.12 71.1547 17.16C71.3947 16.84 71.6347 16.5333 71.8747 16.24C72.1414 15.92 72.3814 15.5867 72.5947 15.24L73.1147 14.4C73.1947 14.2667 73.328 14.2 73.5147 14.2C73.6747 14.2 73.7547 14.2533 73.7547 14.36C73.7547 14.4933 73.6747 14.64 73.5147 14.8C72.688 16.16 71.7947 17.4933 70.8347 18.8C69.8747 20.08 68.888 21.3333 67.8747 22.56C68.408 22.5067 68.9414 22.4533 69.4747 22.4C70.008 22.32 70.5414 22.2267 71.0747 22.12C71.6614 21.1333 72.2747 20.1733 72.9147 19.24C73.5547 18.28 74.2214 17.3467 74.9147 16.44C74.728 16.3867 74.448 16.32 74.0747 16.24C73.728 16.16 73.5547 15.9867 73.5547 15.72C73.5547 15.56 73.7947 15.2267 74.2747 14.72C74.7547 14.2133 75.3547 13.64 76.0747 13C76.8214 12.36 77.5547 11.7467 78.2747 11.16C78.9947 10.5467 79.5947 10.0667 80.0747 9.72C80.3947 9.48 80.5814 9.34667 80.6347 9.32C80.7147 9.29333 80.8347 9.26667 80.9947 9.24C81.128 9.24 81.3014 9.28 81.5147 9.36C81.7547 9.44 81.8747 9.57333 81.8747 9.76C81.8747 9.84 81.7147 10.08 81.3947 10.48C81.1014 10.8533 80.7147 11.32 80.2347 11.88C79.7814 12.4133 79.3014 12.9733 78.7947 13.56C78.288 14.12 77.8347 14.6267 77.4347 15.08C77.0347 15.5333 76.768 15.8533 76.6347 16.04C76.8747 16.0933 77.2614 16.1733 77.7947 16.28C78.328 16.3867 78.8747 16.5333 79.4347 16.72C80.0214 16.88 80.5147 17.08 80.9147 17.32C81.3147 17.56 81.5147 17.84 81.5147 18.16C81.5147 18.56 81.248 18.9467 80.7147 19.32C80.208 19.6933 79.5547 20.0533 78.7547 20.4C77.9547 20.72 77.128 21.0133 76.2747 21.28C75.4214 21.5467 74.648 21.7733 73.9547 21.96C73.2614 22.1467 72.768 22.2667 72.4747 22.32C72.1814 22.8533 71.888 23.4 71.5947 23.96C71.3014 24.52 71.0347 25.0667 70.7947 25.6C71.168 25.5733 71.528 25.5333 71.8747 25.48C72.248 25.4267 72.608 25.3333 72.9547 25.2C72.9814 25.2 72.9947 25.2 72.9947 25.2C73.0214 25.1733 73.048 25.16 73.0747 25.16C73.208 25.16 73.2747 25.2267 73.2747 25.36C73.2747 25.5467 73.0747 25.7067 72.6747 25.84C72.3014 25.9467 71.888 26.0267 71.4347 26.08C71.008 26.1333 70.7147 26.1733 70.5547 26.2C70.288 26.7867 70.048 27.4533 69.8347 28.2C69.6214 28.92 69.5147 29.6 69.5147 30.24C69.5147 30.72 69.5814 31.0933 69.7147 31.36C69.848 31.6 69.9814 31.7733 70.1147 31.88C70.248 31.9867 70.3147 32.0933 70.3147 32.2C70.3147 32.44 70.1947 32.56 69.9547 32.56C69.928 32.56 69.9014 32.5467 69.8747 32.52C69.848 32.52 69.808 32.52 69.7547 32.52C69.2747 32.12 68.928 31.6667 68.7147 31.16C68.528 30.6267 68.4347 30.0667 68.4347 29.48C68.4347 28.9467 68.488 28.4133 68.5947 27.88C68.728 27.32 68.888 26.7867 69.0747 26.28H67.9947C67.408 26.28 66.768 26.28 66.0747 26.28C65.408 26.2533 64.888 26.2267 64.5147 26.2C62.328 28.3867 59.9947 30.3333 57.5147 32.04C55.0614 33.7733 52.408 35.24 49.5547 36.44C48.728 36.7867 47.8614 37.08 46.9547 37.32C46.048 37.5867 45.1414 37.72 44.2347 37.72ZM75.4747 15.76C76.008 15.0667 76.568 14.4 77.1547 13.76C77.7414 13.0933 78.3147 12.44 78.8747 11.8C79.008 11.64 79.128 11.4933 79.2347 11.36C79.368 11.2 79.488 11.0533 79.5947 10.92C79.328 11.1067 78.928 11.4267 78.3947 11.88C77.8614 12.3067 77.408 12.6933 77.0347 13.04C76.5547 13.44 76.048 13.8667 75.5147 14.32C75.008 14.7733 74.7547 15.0933 74.7547 15.28C74.7547 15.4133 74.848 15.52 75.0347 15.6C75.2214 15.68 75.368 15.7333 75.4747 15.76ZM72.7947 21.76C73.2747 21.6533 73.928 21.4933 74.7547 21.28C75.5814 21.04 76.4214 20.76 77.2747 20.44C78.128 20.12 78.848 19.7733 79.4347 19.4C80.048 19 80.3547 18.6 80.3547 18.2C80.3547 18.04 80.2747 17.92 80.1147 17.84C79.9547 17.76 79.8214 17.7067 79.7147 17.68C79.528 17.6 79.1814 17.5067 78.6747 17.4C78.168 17.2667 77.6614 17.1467 77.1547 17.04C76.648 16.9067 76.288 16.8133 76.0747 16.76C75.488 17.56 74.928 18.3867 74.3947 19.24C73.8614 20.0667 73.328 20.9067 72.7947 21.76ZM69.3147 25.68C69.528 25.1733 69.7547 24.6667 69.9947 24.16C70.2347 23.6533 70.488 23.16 70.7547 22.68C70.168 22.7867 69.5814 22.8933 68.9947 23C68.408 23.1067 67.808 23.2133 67.1947 23.32C66.8747 23.6667 66.5547 24.0267 66.2347 24.4C65.9147 24.7467 65.5814 25.1067 65.2347 25.48C65.928 25.5333 66.608 25.5867 67.2747 25.64C67.968 25.6667 68.648 25.68 69.3147 25.68ZM63.7547 25.28C64.048 24.9867 64.3414 24.7067 64.6347 24.44C64.928 24.1467 65.208 23.8667 65.4747 23.6C64.4347 23.76 63.4347 23.9333 62.4747 24.12C61.5414 24.28 60.888 24.44 60.5147 24.6C60.6214 24.6533 60.8614 24.7333 61.2347 24.84C61.6347 24.92 62.0747 25 62.5547 25.08C63.0347 25.16 63.4347 25.2267 63.7547 25.28ZM75.9628 34.72C75.9095 34.72 75.8695 34.6533 75.8428 34.52C75.8161 34.3867 75.8028 34.3067 75.8028 34.28C75.8028 34.0133 75.8695 33.6133 76.0028 33.08C76.1361 32.5467 76.2961 31.9733 76.4828 31.36C76.6961 30.72 76.8961 30.1333 77.0828 29.6C77.2961 29.04 77.4561 28.6133 77.5628 28.32C77.2961 26.9067 77.1095 25.48 77.0028 24.04C76.8961 22.6 76.8428 21.1733 76.8428 19.76C76.8428 19.52 76.8561 19.12 76.8828 18.56C76.9095 17.9733 76.9628 17.3733 77.0428 16.76C77.1228 16.12 77.2561 15.5867 77.4428 15.16C77.6295 14.7067 77.8828 14.48 78.2028 14.48C78.3628 14.48 78.4828 14.5067 78.5628 14.56C79.2561 14.88 79.6961 15.4267 79.8828 16.2C80.0961 16.9733 80.2028 17.7067 80.2028 18.4C80.2028 19.3333 80.0961 20.36 79.8828 21.48C79.6961 22.5733 79.4561 23.6533 79.1628 24.72C78.8695 25.7867 78.5495 26.7733 78.2028 27.68C78.2561 27.92 78.3228 28.28 78.4028 28.76C78.4828 29.24 78.5895 29.7467 78.7228 30.28C78.8828 30.7867 79.0695 31.2267 79.2828 31.6C79.5228 31.9467 79.8028 32.12 80.1228 32.12C80.4161 32.12 80.6428 31.9867 80.8028 31.72C80.9895 31.4267 81.1228 31.1067 81.2028 30.76C81.3095 30.4133 81.3895 30.1467 81.4428 29.96C81.4695 29.9067 81.4961 29.84 81.5228 29.76C81.5761 29.68 81.6428 29.64 81.7228 29.64C81.8028 29.64 81.8428 29.6933 81.8428 29.8V29.88C81.8428 30.1733 81.7761 30.5467 81.6428 31C81.5095 31.4267 81.3095 31.8133 81.0428 32.16C80.8028 32.5067 80.4695 32.68 80.0428 32.68C79.5895 32.68 79.2028 32.4533 78.8828 32C78.5628 31.5467 78.3095 31.0267 78.1228 30.44C77.9361 29.8533 77.8028 29.3867 77.7228 29.04C77.4028 29.9467 77.1095 30.8533 76.8428 31.76C76.5761 32.6667 76.3228 33.5867 76.0828 34.52C76.0828 34.5467 76.0695 34.5867 76.0428 34.64C76.0428 34.6933 76.0161 34.72 75.9628 34.72ZM78.0828 26.76C78.5095 25.5067 78.8828 24.1333 79.2028 22.64C79.5495 21.1467 79.7228 19.7467 79.7228 18.44C79.7228 18.28 79.7095 18 79.6828 17.6C79.6561 17.2 79.5895 16.84 79.4828 16.52C79.3761 16.1733 79.2028 16 78.9628 16C78.7228 16 78.5495 16.2133 78.4428 16.64C78.3361 17.0667 78.2695 17.36 78.2428 17.52C78.1095 18.5867 78.0295 19.68 78.0028 20.8C77.9761 21.92 77.9628 23.0133 77.9628 24.08C77.9628 24.9333 78.0028 25.8267 78.0828 26.76ZM84.2472 20.28C84.1405 20.28 84.0205 20.2533 83.8872 20.2C83.7539 20.1467 83.6872 20.0533 83.6872 19.92C83.6872 19.6267 83.8739 19.3867 84.2472 19.2C84.6205 19.0133 84.9139 18.92 85.1272 18.92C85.2605 18.92 85.3805 18.9467 85.4872 19C85.6205 19.0533 85.6872 19.1467 85.6872 19.28C85.6872 19.5733 85.5005 19.8133 85.1272 20C84.7539 20.1867 84.4605 20.28 84.2472 20.28ZM85.2072 32.52C84.7539 32.52 84.3805 32.3067 84.0872 31.88C83.8205 31.4267 83.6205 30.8933 83.4872 30.28C83.3539 29.64 83.2605 29.0267 83.2072 28.44C83.1805 27.8533 83.1672 27.4 83.1672 27.08C83.1672 26.7333 83.1672 26.4 83.1672 26.08C83.1939 25.7333 83.2472 25.4 83.3272 25.08C83.3805 24.8667 83.4872 24.6267 83.6472 24.36C83.8339 24.0933 84.0605 23.96 84.3272 23.96C84.5672 23.96 84.6872 24.0933 84.6872 24.36L84.6472 24.52C84.5939 25.1067 84.5272 25.7067 84.4472 26.32C84.3672 26.9333 84.3272 27.5467 84.3272 28.16C84.3272 28.4533 84.3405 28.84 84.3672 29.32C84.3939 29.8 84.4605 30.2667 84.5672 30.72C84.7005 31.1467 84.8739 31.48 85.0872 31.72C85.1405 31.8267 85.2205 31.88 85.3272 31.88C85.5672 31.88 85.8339 31.7067 86.1272 31.36C86.4472 31.0133 86.6739 30.76 86.8072 30.6C87.3405 29.96 87.7405 29.36 88.0072 28.8C88.3005 28.24 88.5805 27.5867 88.8472 26.84C88.8472 26.7067 88.9139 26.64 89.0472 26.64C89.1272 26.64 89.1672 26.7067 89.1672 26.84C89.1672 26.8667 89.1539 26.8933 89.1272 26.92C89.1272 26.92 89.1272 26.9467 89.1272 27C88.6739 28.5733 87.9272 29.9867 86.8872 31.24C86.7005 31.48 86.4605 31.7467 86.1672 32.04C85.8739 32.36 85.5539 32.52 85.2072 32.52ZM88.9966 32.04C88.8099 32.04 88.6499 31.96 88.5166 31.8C88.3832 31.6133 88.3166 31.44 88.3166 31.28C88.3166 31.1733 88.3432 31.04 88.3966 30.88C88.6366 30.4 88.8366 29.8133 88.9966 29.12C89.1566 28.4267 89.2766 27.72 89.3566 27C89.4366 26.28 89.4766 25.6667 89.4766 25.16C89.4766 24.6533 89.4232 24.1067 89.3166 23.52C89.2366 22.9067 88.9832 22.44 88.5566 22.12C88.4499 22.0667 88.3966 22.0133 88.3966 21.96C88.3966 21.9067 88.4232 21.88 88.4766 21.88C88.5566 21.88 88.6232 21.9067 88.6766 21.96C89.1566 22.2 89.5166 22.6 89.7566 23.16C90.0232 23.72 90.2099 24.32 90.3166 24.96C90.4232 25.5733 90.4766 26.1333 90.4766 26.64C90.4766 27.1467 90.4232 27.7067 90.3166 28.32C90.2366 28.9067 90.0766 29.44 89.8366 29.92C90.5832 29.4133 91.2499 28.7867 91.8366 28.04C92.4499 27.2667 92.9966 26.5067 93.4766 25.76C93.6099 25.5467 93.8099 25.32 94.0766 25.08C94.3432 24.8133 94.6099 24.68 94.8766 24.68C95.0632 24.68 95.1566 24.8 95.1566 25.04C95.1566 25.1733 95.1299 25.2933 95.0766 25.4C94.7566 26.4667 94.5966 27.6267 94.5966 28.88C94.5966 29.12 94.6099 29.4133 94.6366 29.76C94.6899 30.1067 94.7832 30.4133 94.9166 30.68C95.0766 30.9467 95.3299 31.08 95.6766 31.08C95.8632 31.08 96.0632 31.04 96.2766 30.96C96.4899 30.8533 96.6499 30.72 96.7566 30.56C96.8099 30.5067 96.8632 30.48 96.9166 30.48C96.9432 30.48 96.9566 30.5067 96.9566 30.56C96.9566 30.8267 96.7699 31.0267 96.3966 31.16C96.0232 31.2933 95.7299 31.36 95.5166 31.36C94.8232 31.36 94.2899 31.04 93.9166 30.4C93.5432 29.76 93.3566 29.1333 93.3566 28.52C93.3566 28.28 93.3832 28.04 93.4366 27.8C93.5166 27.56 93.5566 27.32 93.5566 27.08C93.5566 27.0267 93.5432 26.9467 93.5166 26.84C93.5166 26.7333 93.4766 26.68 93.3966 26.68C93.3432 26.68 93.1432 26.88 92.7966 27.28C92.4499 27.68 92.0499 28.16 91.5966 28.72C91.1432 29.28 90.7299 29.8 90.3566 30.28C90.0099 30.76 89.7966 31.0667 89.7166 31.2C89.6366 31.3867 89.5566 31.5733 89.4766 31.76C89.3966 31.9467 89.2366 32.04 88.9966 32.04ZM102.208 32.64C101.648 32.64 101.315 32.3733 101.208 31.84C101.101 31.3067 101.048 30.8267 101.048 30.4C101.048 29.6533 101.075 28.92 101.128 28.2C101.208 27.4533 101.275 26.7067 101.328 25.96C101.221 26.3333 101.061 26.8533 100.848 27.52C100.661 28.1867 100.421 28.8667 100.128 29.56C99.8348 30.2533 99.5015 30.84 99.1281 31.32C98.7548 31.8 98.3281 32.04 97.8481 32.04C97.5281 32.04 97.2881 31.9067 97.1281 31.64C96.9681 31.3733 96.8615 31.0667 96.8081 30.72C96.7815 30.3467 96.7681 30.0533 96.7681 29.84C96.7681 28.5867 97.0215 27.2933 97.5281 25.96C98.0348 24.6267 98.6348 23.4667 99.3281 22.48C99.3281 22.08 99.4748 21.6667 99.7681 21.24C100.088 20.8133 100.461 20.4267 100.888 20.08C101.315 19.7333 101.688 19.4933 102.008 19.36C102.168 19.3067 102.315 19.28 102.448 19.28C102.581 19.28 102.675 19.3333 102.728 19.44C102.808 19.5467 102.848 19.6667 102.848 19.8C102.848 19.9067 102.835 20.0267 102.808 20.16C102.781 20.2667 102.728 20.36 102.648 20.44C102.408 20.68 102.168 20.8933 101.928 21.08C101.715 21.2667 101.488 21.5067 101.248 21.8C100.715 22.44 100.155 23.2133 99.5681 24.12C99.0081 25.0267 98.5281 25.9733 98.1281 26.96C97.7281 27.92 97.5281 28.8267 97.5281 29.68C97.5281 29.7867 97.5415 30 97.5681 30.32C97.5948 30.6133 97.6481 30.8933 97.7281 31.16C97.8348 31.4 97.9815 31.52 98.1681 31.52C98.4081 31.52 98.6215 31.3867 98.8081 31.12C99.0215 30.8267 99.1815 30.5867 99.2881 30.4C99.5815 29.8667 99.8615 29.2 100.128 28.4C100.395 27.6 100.635 26.7867 100.848 25.96C101.061 25.1333 101.221 24.4267 101.328 23.84C101.381 23.6533 101.421 23.48 101.448 23.32C101.475 23.1333 101.501 22.9467 101.528 22.76C101.555 22.68 101.568 22.5867 101.568 22.48C101.568 22.3467 101.581 22.2267 101.608 22.12C101.661 21.96 101.781 21.88 101.968 21.88C102.101 21.88 102.221 21.92 102.328 22C102.435 22.08 102.488 22.1867 102.488 22.32V22.4C102.488 23.3067 102.421 24.2 102.288 25.08C102.181 25.96 102.128 26.8667 102.128 27.8C102.128 28.3333 102.141 28.8933 102.168 29.48C102.195 30.0667 102.261 30.64 102.368 31.2C102.368 31.28 102.395 31.4 102.448 31.56C102.501 31.72 102.595 31.8 102.728 31.8C102.808 31.8 102.888 31.7733 102.968 31.72C103.075 31.64 103.141 31.5867 103.168 31.56C103.835 31 104.408 30.28 104.888 29.4C105.368 28.4933 105.755 27.64 106.048 26.84C106.128 26.7067 106.195 26.64 106.248 26.64C106.328 26.64 106.368 26.7067 106.368 26.84V27C106.235 27.4533 105.981 28.0667 105.608 28.84C105.235 29.5867 104.821 30.3067 104.368 31C103.941 31.6667 103.528 32.12 103.128 32.36C102.861 32.5467 102.555 32.64 102.208 32.64ZM123.131 18.08C122.731 18.08 122.184 18.0667 121.491 18.04C120.798 18.0133 120.051 17.9467 119.251 17.84C118.451 17.7333 117.691 17.5733 116.971 17.36C116.251 17.1467 115.651 16.8667 115.171 16.52C114.718 16.1467 114.491 15.6933 114.491 15.16C114.491 14.6267 114.691 14.1467 115.091 13.72C115.491 13.2667 115.904 12.9333 116.331 12.72C117.371 12.16 118.598 11.68 120.011 11.28C121.424 10.8533 122.918 10.5067 124.491 10.24C126.064 9.94667 127.598 9.73333 129.091 9.6C130.584 9.46667 131.904 9.4 133.051 9.4C133.344 9.4 133.798 9.41333 134.411 9.44C135.051 9.46667 135.758 9.53333 136.531 9.64C137.331 9.72 138.091 9.84 138.811 10C139.531 10.16 140.118 10.3867 140.571 10.68C141.051 10.9467 141.291 11.2933 141.291 11.72C141.291 11.8267 141.251 11.9733 141.171 12.16C141.091 12.3467 140.971 12.44 140.811 12.44C140.624 12.44 140.531 12.3467 140.531 12.16C140.531 12.08 140.544 12.0133 140.571 11.96C140.624 11.9067 140.651 11.8267 140.651 11.72C140.651 11.5333 140.558 11.3867 140.371 11.28C140.211 11.1467 140.064 11.0667 139.931 11.04C139.238 10.72 138.358 10.52 137.291 10.44C136.251 10.3333 135.344 10.28 134.571 10.28C133.478 10.28 132.198 10.3467 130.731 10.48C129.264 10.6133 127.744 10.8267 126.171 11.12C124.624 11.3867 123.144 11.72 121.731 12.12C120.344 12.4933 119.171 12.9467 118.211 13.48C117.918 13.64 117.518 13.8933 117.011 14.24C116.531 14.5867 116.291 14.96 116.291 15.36C116.291 15.7067 116.518 16 116.971 16.24C117.424 16.4533 117.998 16.6267 118.691 16.76C119.411 16.8933 120.158 17 120.931 17.08C121.704 17.16 122.398 17.2133 123.011 17.24C123.651 17.2667 124.104 17.28 124.371 17.28C125.171 17.28 125.971 17.24 126.771 17.16C127.571 17.08 128.344 16.9333 129.091 16.72H129.211C129.398 16.72 129.491 16.8267 129.491 17.04C129.491 17.1733 129.411 17.2667 129.251 17.32C129.144 17.3733 129.011 17.4133 128.851 17.44C128.718 17.4667 128.584 17.4933 128.451 17.52C126.638 17.8933 124.864 18.08 123.131 18.08ZM119.411 34.36C117.838 34.36 116.544 33.9867 115.531 33.24C114.544 32.4933 113.811 31.5067 113.331 30.28C112.878 29.0267 112.651 27.6933 112.651 26.28C112.651 25.6667 112.704 24.92 112.811 24.04C112.944 23.16 113.131 22.4267 113.371 21.84C113.424 21.68 113.518 21.6 113.651 21.6C113.864 21.6 113.971 21.6933 113.971 21.88V21.96C113.624 22.92 113.451 23.9333 113.451 25C113.451 26.12 113.624 27.1867 113.971 28.2C114.238 29.0267 114.611 29.8533 115.091 30.68C115.598 31.5067 116.224 32.1867 116.971 32.72C117.744 33.28 118.611 33.56 119.571 33.56C120.851 33.56 122.038 33.2667 123.131 32.68C124.251 32.12 125.264 31.36 126.171 30.4C127.104 29.44 127.944 28.3733 128.691 27.2C129.464 26.0267 130.158 24.8533 130.771 23.68C131.384 22.48 131.918 21.36 132.371 20.32C131.464 20.4533 130.544 20.68 129.611 21C128.704 21.32 127.824 21.64 126.971 21.96C126.624 22.0933 126.118 22.2933 125.451 22.56C124.784 22.8 124.078 23.0667 123.331 23.36C122.584 23.6267 121.878 23.8533 121.211 24.04C120.571 24.2267 120.078 24.32 119.731 24.32C119.464 24.32 119.158 24.24 118.811 24.08C118.491 23.92 118.331 23.68 118.331 23.36C118.331 23.2 118.371 23.0667 118.451 22.96C118.638 22.6667 118.984 22.3867 119.491 22.12C119.998 21.8533 120.558 21.6 121.171 21.36C121.784 21.12 122.371 20.8933 122.931 20.68C123.518 20.44 123.971 20.24 124.291 20.08C125.011 19.76 125.704 19.4267 126.371 19.08C127.038 18.7067 127.678 18.2667 128.291 17.76C128.344 17.7067 128.398 17.68 128.451 17.68C128.584 17.68 128.651 17.7733 128.651 17.96C128.651 18.0667 128.611 18.16 128.531 18.24C127.758 18.9867 126.798 19.6267 125.651 20.16C124.504 20.6667 123.451 21.1733 122.491 21.68C122.091 21.8933 121.664 22.1333 121.211 22.4C120.758 22.6667 120.384 22.9867 120.091 23.36L120.051 23.44H120.131C120.344 23.44 120.758 23.3467 121.371 23.16C122.011 22.9467 122.704 22.7067 123.451 22.44C124.198 22.1733 124.878 21.92 125.491 21.68C126.131 21.44 126.584 21.28 126.851 21.2C127.784 20.88 128.731 20.5733 129.691 20.28C130.678 19.96 131.664 19.76 132.651 19.68C132.784 19.3867 132.984 18.9333 133.251 18.32C133.518 17.7067 133.824 17.0267 134.171 16.28C134.518 15.5067 134.864 14.76 135.211 14.04C135.558 13.32 135.878 12.6933 136.171 12.16C136.464 11.6267 136.704 11.2933 136.891 11.16C137.051 11.0267 137.224 10.9067 137.411 10.8C137.598 10.6933 137.811 10.64 138.051 10.64C138.318 10.64 138.598 10.76 138.891 11C139.184 11.24 139.331 11.5067 139.331 11.8C139.331 11.9333 139.264 12 139.131 12C138.891 12 138.718 11.88 138.611 11.64C138.504 11.4 138.304 11.28 138.011 11.28C137.851 11.28 137.718 11.32 137.611 11.4C137.531 11.48 137.438 11.56 137.331 11.64C137.224 11.7467 137.064 12.0533 136.851 12.56C136.638 13.04 136.384 13.64 136.091 14.36C135.824 15.0533 135.544 15.7733 135.251 16.52C134.984 17.2667 134.744 17.9333 134.531 18.52C134.318 19.08 134.171 19.48 134.091 19.72C134.438 19.8267 134.784 19.9867 135.131 20.2C135.478 20.4133 135.651 20.7333 135.651 21.16C135.651 21.5333 135.504 21.9333 135.211 22.36C134.918 22.76 134.571 23.1467 134.171 23.52C133.798 23.8667 133.464 24.1467 133.171 24.36C133.144 24.36 133.118 24.3733 133.091 24.4C133.091 24.4267 133.064 24.44 133.011 24.44C132.824 24.44 132.731 24.3467 132.731 24.16C132.731 24.0533 132.878 23.8267 133.171 23.48C133.464 23.1333 133.758 22.7333 134.051 22.28C134.371 21.8267 134.531 21.4133 134.531 21.04C134.531 20.6133 134.318 20.3733 133.891 20.32C133.678 20.8267 133.464 21.3467 133.251 21.88C133.064 22.4133 132.851 22.9467 132.611 23.48C131.971 24.84 131.224 26.1733 130.371 27.48C129.544 28.7867 128.598 29.96 127.531 31C126.491 32.0133 125.291 32.8267 123.931 33.44C122.598 34.0533 121.091 34.36 119.411 34.36ZM138.075 20.28C137.969 20.28 137.849 20.2533 137.715 20.2C137.582 20.1467 137.515 20.0533 137.515 19.92C137.515 19.6267 137.702 19.3867 138.075 19.2C138.449 19.0133 138.742 18.92 138.955 18.92C139.089 18.92 139.209 18.9467 139.315 19C139.449 19.0533 139.515 19.1467 139.515 19.28C139.515 19.5733 139.329 19.8133 138.955 20C138.582 20.1867 138.289 20.28 138.075 20.28ZM139.035 32.52C138.582 32.52 138.209 32.3067 137.915 31.88C137.649 31.4267 137.449 30.8933 137.315 30.28C137.182 29.64 137.089 29.0267 137.035 28.44C137.009 27.8533 136.995 27.4 136.995 27.08C136.995 26.7333 136.995 26.4 136.995 26.08C137.022 25.7333 137.075 25.4 137.155 25.08C137.209 24.8667 137.315 24.6267 137.475 24.36C137.662 24.0933 137.889 23.96 138.155 23.96C138.395 23.96 138.515 24.0933 138.515 24.36L138.475 24.52C138.422 25.1067 138.355 25.7067 138.275 26.32C138.195 26.9333 138.155 27.5467 138.155 28.16C138.155 28.4533 138.169 28.84 138.195 29.32C138.222 29.8 138.289 30.2667 138.395 30.72C138.529 31.1467 138.702 31.48 138.915 31.72C138.969 31.8267 139.049 31.88 139.155 31.88C139.395 31.88 139.662 31.7067 139.955 31.36C140.275 31.0133 140.502 30.76 140.635 30.6C141.169 29.96 141.569 29.36 141.835 28.8C142.129 28.24 142.409 27.5867 142.675 26.84C142.675 26.7067 142.742 26.64 142.875 26.64C142.955 26.64 142.995 26.7067 142.995 26.84C142.995 26.8667 142.982 26.8933 142.955 26.92C142.955 26.92 142.955 26.9467 142.955 27C142.502 28.5733 141.755 29.9867 140.715 31.24C140.529 31.48 140.289 31.7467 139.995 32.04C139.702 32.36 139.382 32.52 139.035 32.52ZM141.822 34.72C141.769 34.72 141.729 34.6533 141.702 34.52C141.676 34.3867 141.662 34.3067 141.662 34.28C141.662 34.0133 141.729 33.6133 141.862 33.08C141.996 32.5467 142.156 31.9733 142.342 31.36C142.556 30.72 142.756 30.1333 142.942 29.6C143.156 29.04 143.316 28.6133 143.422 28.32C143.156 26.9067 142.969 25.48 142.862 24.04C142.756 22.6 142.702 21.1733 142.702 19.76C142.702 19.52 142.716 19.12 142.742 18.56C142.769 17.9733 142.822 17.3733 142.902 16.76C142.982 16.12 143.116 15.5867 143.302 15.16C143.489 14.7067 143.742 14.48 144.062 14.48C144.222 14.48 144.342 14.5067 144.422 14.56C145.116 14.88 145.556 15.4267 145.742 16.2C145.956 16.9733 146.062 17.7067 146.062 18.4C146.062 19.3333 145.956 20.36 145.742 21.48C145.556 22.5733 145.316 23.6533 145.022 24.72C144.729 25.7867 144.409 26.7733 144.062 27.68C144.116 27.92 144.182 28.28 144.262 28.76C144.342 29.24 144.449 29.7467 144.582 30.28C144.742 30.7867 144.929 31.2267 145.142 31.6C145.382 31.9467 145.662 32.12 145.982 32.12C146.276 32.12 146.502 31.9867 146.662 31.72C146.849 31.4267 146.982 31.1067 147.062 30.76C147.169 30.4133 147.249 30.1467 147.302 29.96C147.329 29.9067 147.356 29.84 147.382 29.76C147.436 29.68 147.502 29.64 147.582 29.64C147.662 29.64 147.702 29.6933 147.702 29.8V29.88C147.702 30.1733 147.636 30.5467 147.502 31C147.369 31.4267 147.169 31.8133 146.902 32.16C146.662 32.5067 146.329 32.68 145.902 32.68C145.449 32.68 145.062 32.4533 144.742 32C144.422 31.5467 144.169 31.0267 143.982 30.44C143.796 29.8533 143.662 29.3867 143.582 29.04C143.262 29.9467 142.969 30.8533 142.702 31.76C142.436 32.6667 142.182 33.5867 141.942 34.52C141.942 34.5467 141.929 34.5867 141.902 34.64C141.902 34.6933 141.876 34.72 141.822 34.72ZM143.942 26.76C144.369 25.5067 144.742 24.1333 145.062 22.64C145.409 21.1467 145.582 19.7467 145.582 18.44C145.582 18.28 145.569 18 145.542 17.6C145.516 17.2 145.449 16.84 145.342 16.52C145.236 16.1733 145.062 16 144.822 16C144.582 16 144.409 16.2133 144.302 16.64C144.196 17.0667 144.129 17.36 144.102 17.52C143.969 18.5867 143.889 19.68 143.862 20.8C143.836 21.92 143.822 23.0133 143.822 24.08C143.822 24.9333 143.862 25.8267 143.942 26.76ZM150.107 20.28C150 20.28 149.88 20.2533 149.747 20.2C149.613 20.1467 149.547 20.0533 149.547 19.92C149.547 19.6267 149.733 19.3867 150.107 19.2C150.48 19.0133 150.773 18.92 150.987 18.92C151.12 18.92 151.24 18.9467 151.347 19C151.48 19.0533 151.547 19.1467 151.547 19.28C151.547 19.5733 151.36 19.8133 150.987 20C150.613 20.1867 150.32 20.28 150.107 20.28ZM151.067 32.52C150.613 32.52 150.24 32.3067 149.947 31.88C149.68 31.4267 149.48 30.8933 149.347 30.28C149.213 29.64 149.12 29.0267 149.067 28.44C149.04 27.8533 149.027 27.4 149.027 27.08C149.027 26.7333 149.027 26.4 149.027 26.08C149.053 25.7333 149.107 25.4 149.187 25.08C149.24 24.8667 149.347 24.6267 149.507 24.36C149.693 24.0933 149.92 23.96 150.187 23.96C150.427 23.96 150.547 24.0933 150.547 24.36L150.507 24.52C150.453 25.1067 150.387 25.7067 150.307 26.32C150.227 26.9333 150.187 27.5467 150.187 28.16C150.187 28.4533 150.2 28.84 150.227 29.32C150.253 29.8 150.32 30.2667 150.427 30.72C150.56 31.1467 150.733 31.48 150.947 31.72C151 31.8267 151.08 31.88 151.187 31.88C151.427 31.88 151.693 31.7067 151.987 31.36C152.307 31.0133 152.533 30.76 152.667 30.6C153.2 29.96 153.6 29.36 153.867 28.8C154.16 28.24 154.44 27.5867 154.707 26.84C154.707 26.7067 154.773 26.64 154.907 26.64C154.987 26.64 155.027 26.7067 155.027 26.84C155.027 26.8667 155.013 26.8933 154.987 26.92C154.987 26.92 154.987 26.9467 154.987 27C154.533 28.5733 153.787 29.9867 152.747 31.24C152.56 31.48 152.32 31.7467 152.027 32.04C151.733 32.36 151.413 32.52 151.067 32.52ZM151.664 43.28C151.184 43.28 150.971 42.76 151.024 41.72C151.104 40.7333 151.318 39.6933 151.664 38.6C151.984 37.5067 152.384 36.44 152.864 35.4C153.318 34.3867 153.744 33.4667 154.144 32.64C154.571 31.84 154.904 31.2267 155.144 30.8C154.851 30.6667 154.571 30.4933 154.304 30.28C154.038 30.04 153.904 29.7467 153.904 29.4C153.904 29.1067 154.011 28.92 154.224 28.84C154.464 28.76 154.691 28.72 154.904 28.72C155.144 28.72 155.371 28.72 155.584 28.72C155.824 28.72 156.064 28.7333 156.304 28.76C156.411 28.5733 156.518 28.3867 156.624 28.2C156.758 28.0133 156.864 27.8267 156.944 27.64C157.371 26.7867 157.691 25.84 157.904 24.8C158.118 23.76 158.304 22.7867 158.464 21.88C158.491 21.7733 158.518 21.64 158.544 21.48C158.598 21.32 158.678 21.24 158.784 21.24C159.051 21.24 159.318 21.4133 159.584 21.76C159.878 22.08 160.091 22.3333 160.224 22.52C160.304 22.4133 160.451 22.1867 160.664 21.84C160.904 21.4933 161.144 21.1467 161.384 20.8C161.624 20.4533 161.771 20.2533 161.824 20.2C161.931 20.0933 162.078 20.0133 162.264 19.96C162.478 19.88 162.651 19.84 162.784 19.84C162.838 19.84 162.904 19.8533 162.984 19.88C163.091 19.9067 163.144 19.9733 163.144 20.08C163.144 20.1333 163.118 20.1867 163.064 20.24C162.958 20.4 162.838 20.56 162.704 20.72C162.571 20.88 162.451 21.0267 162.344 21.16C162.078 21.5067 161.811 21.8667 161.544 22.24C161.278 22.6133 161.011 22.9867 160.744 23.36C160.958 23.6533 161.224 24.12 161.544 24.76C161.864 25.3733 162.158 26 162.424 26.64C162.718 27.2533 162.878 27.7467 162.904 28.12C163.011 28.0933 163.211 28.0267 163.504 27.92C163.824 27.8133 163.998 27.76 164.024 27.76C164.158 27.76 164.224 27.8133 164.224 27.92C164.224 28 164.038 28.1067 163.664 28.24C163.291 28.3733 163.051 28.4667 162.944 28.52C162.971 29.1067 162.771 29.6533 162.344 30.16C161.944 30.6667 161.438 31.08 160.824 31.4C160.238 31.6933 159.664 31.84 159.104 31.84C158.651 31.84 158.078 31.7467 157.384 31.56C156.718 31.3733 156.171 31.2133 155.744 31.08C155.478 31.5067 155.158 32.1067 154.784 32.88C154.438 33.6533 154.078 34.5067 153.704 35.44C153.331 36.3733 152.984 37.28 152.664 38.16C152.344 39.0667 152.091 39.88 151.904 40.6C151.691 41.32 151.584 41.84 151.584 42.16C151.584 42.48 151.638 42.6933 151.744 42.8C151.851 42.9333 151.904 43.0133 151.904 43.04C151.904 43.2 151.824 43.28 151.664 43.28ZM158.264 25.52L159.864 23.08C159.758 22.8933 159.651 22.72 159.544 22.56C159.464 22.4 159.358 22.2533 159.224 22.12C159.118 22.7067 158.971 23.28 158.784 23.84C158.624 24.4 158.451 24.96 158.264 25.52ZM157.104 28.8H157.664C159.051 28.8 160.398 28.68 161.704 28.44C161.651 27.72 161.478 26.96 161.184 26.16C160.918 25.3333 160.638 24.5867 160.344 23.92C159.784 24.72 159.238 25.52 158.704 26.32C158.171 27.12 157.638 27.9467 157.104 28.8ZM158.584 31.4C159.144 31.4 159.771 31.2533 160.464 30.96C161.158 30.6667 161.558 30.2 161.664 29.56C161.691 29.4267 161.704 29.3067 161.704 29.2C161.731 29.0667 161.744 28.9467 161.744 28.84C160.918 29 160.091 29.1067 159.264 29.16C158.464 29.2133 157.651 29.2667 156.824 29.32C156.664 29.5333 156.518 29.76 156.384 30C156.278 30.2133 156.158 30.4267 156.024 30.64C156.424 30.8533 156.838 31.04 157.264 31.2C157.718 31.3333 158.158 31.4 158.584 31.4ZM155.424 30.32L155.944 29.36C155.838 29.3867 155.651 29.4267 155.384 29.48C155.118 29.5333 154.984 29.64 154.984 29.8C154.984 29.9067 155.038 30.0133 155.144 30.12C155.278 30.2 155.371 30.2667 155.424 30.32Z" fill="black"/>
</svg>
