<svg width="371" height="99" viewBox="0 0 371 99" fill="none" xmlns="http://www.w3.org/2000/svg">
<path d="M49.1987 40.5511L49.6779 39.5221C50.0112 38.8921 50.3237 38.2411 50.5946 37.6531C51.9696 34.5451 53.3029 31.1431 53.4071 27.1741C53.5112 24.1711 52.5112 21.4201 50.6362 19.5511C48.7196 17.6611 46.1571 16.6531 43.1362 16.6531H42.6987C41.0529 16.6951 39.5112 17.1361 37.9487 17.5561C31.1987 19.4461 26.6154 23.6881 21.7612 28.2451L21.2196 28.7281L20.8446 28.4131L22.3446 25.5571C23.5737 23.2471 24.8029 20.9371 25.9696 18.6271C26.0737 18.3121 26.2821 17.9971 26.4904 17.6611C27.4071 16.4431 27.8862 15.5191 26.6154 14.5531C26.1779 14.2381 25.8029 14.0701 25.4279 14.0701C24.7404 14.0701 24.1571 14.6581 23.5737 15.2041C23.1987 15.5821 22.8237 15.9601 22.3862 16.1701C22.3446 16.2121 22.2404 16.3171 22.1779 16.4851C22.0321 16.7581 21.9696 16.9681 22.0737 17.1361C22.0737 17.1361 22.1362 17.2411 22.2821 17.2831C23.0321 17.4511 23.4071 17.6611 23.5737 17.9971C23.7196 18.3751 23.4071 18.6271 23.1362 18.9001C23.0321 18.9631 22.9904 19.0681 22.9279 19.1101C18.6571 26.2711 15.4071 34.2721 12.4904 41.8951C11.1987 45.1711 9.55289 47.2711 7.09456 48.7621C2.94872 51.3031 0.594556 54.5161 0.0737228 58.5481C-0.197111 60.6481 0.282056 62.6221 1.44872 64.2391C2.67789 65.8561 4.59456 67.0321 6.94872 67.6831C8.28206 68.0611 9.49039 68.2081 10.8237 68.2081C13.4487 68.2081 15.8446 67.5151 18.0321 66.7591C29.6987 62.6851 39.1779 55.2091 47.0737 43.8901L49.1987 40.5511ZM31.9904 41.7271C31.8862 41.7271 31.7821 41.7271 31.6779 41.7271C29.8654 41.8951 28.0946 42.1051 26.3446 42.3151C25.6571 42.4411 24.9487 42.5461 24.2612 42.6511C23.8862 42.6931 23.5737 42.7561 23.1987 42.8191C22.8862 42.8611 22.5529 43.0291 22.2404 43.0291C20.8446 43.2391 19.4696 43.5121 18.1362 43.7851C17.4487 43.9321 16.8029 44.1001 16.1154 44.2681C15.7821 44.3101 15.4696 44.3731 15.1571 44.4781C14.8237 44.5201 14.5112 44.6881 14.1987 44.6881C18.8237 35.1331 24.3237 25.5571 33.8029 20.5171C36.6154 19.0051 39.7612 17.9341 43.3446 17.8921C45.0529 17.8921 46.9071 18.1441 48.5112 19.2361C51.3237 21.2101 52.0737 24.8641 51.8237 27.7201C51.4487 32.2771 49.5737 36.2041 47.3446 39.7951C41.6362 48.9931 33.4904 56.3431 23.7821 61.6141C19.3654 64.0291 14.4071 66.0661 8.65706 65.6881C6.71956 65.5831 4.49039 65.0581 2.99039 63.3781C1.71956 61.8871 1.51122 59.8921 1.78206 58.2751C2.51122 54.3061 5.61539 51.7231 8.59456 49.3081C9.55289 50.2741 8.05289 51.7231 9.07372 52.6891C9.44872 53.0251 10.0946 53.0251 10.4071 52.7521C10.7196 52.4791 10.8862 52.0381 11.0529 51.6811C12.5321 47.9641 15.9487 45.6541 19.8446 44.4151C21.2196 43.9951 22.6571 43.6591 24.1571 43.4491C24.8029 43.4491 25.3862 43.3021 25.9696 43.1761C26.6154 43.1341 27.2404 43.0711 27.8862 43.0291C29.1154 42.9241 30.2821 42.8611 31.5529 42.9241C31.7821 42.9241 32.0321 42.9661 32.1987 42.8611C32.2612 42.8611 32.3029 42.8191 32.3029 42.7561C32.5321 42.4831 32.4696 41.8321 31.9904 41.7271Z" fill="#DA4F7C"/>
<path d="M76.9666 42.819C76.8207 42.819 76.6541 42.924 76.4457 42.966C76.3416 43.029 76.1749 43.071 76.0707 43.134C75.7374 43.176 75.4249 43.239 75.1124 43.239C73.1332 43.239 71.0499 42.105 69.5707 40.278C68.2374 38.619 67.3832 37.821 66.5291 37.821C65.9874 37.821 65.3624 38.136 64.3416 38.892C62.8416 40.005 61.4666 41.202 60.0291 42.441L57.7791 44.3101C57.6332 44.4781 57.4666 44.625 57.2582 44.856C56.8207 45.276 56.4041 45.759 55.7166 45.927H55.5499L55.4874 45.822C55.2374 45.486 55.9666 43.827 55.9666 43.827C56.3416 43.134 56.6749 42.4411 56.9874 41.7271C57.4666 40.6561 57.9041 39.5221 58.3832 38.409L58.7374 37.3801C58.7999 37.2751 58.9041 37.107 58.9666 37.002C59.1124 36.624 59.3832 36.246 59.2166 35.889C59.1124 35.658 58.9666 35.511 58.6957 35.343C58.5291 35.238 58.3832 35.175 58.2166 35.175C57.7791 35.175 57.4666 35.721 57.1957 36.099L57.1541 36.246C55.0082 39.753 53.3207 43.659 51.8624 48.237L51.8207 48.447C51.6124 49.035 51.3832 49.6861 52.1957 50.2741C52.4666 50.4841 52.7166 50.5891 52.9457 50.5891C53.3207 50.5891 53.5291 50.274 53.7374 49.959C53.8416 49.854 53.9457 49.7281 54.0499 49.6231L55.3416 48.279C58.1541 45.339 61.0916 42.315 64.4457 39.9C65.4041 39.207 65.9457 38.829 66.5291 38.829C67.2791 38.829 67.8624 39.4801 69.1332 40.9921C70.6749 42.7561 72.9666 43.89 75.0082 43.89C75.7999 43.89 76.5499 43.722 77.1332 43.344C77.3416 43.239 77.4041 43.071 77.3416 43.029C77.3416 42.966 77.2374 42.861 76.9666 42.819Z" fill="#DA4F7C"/>
<path d="M82.8861 49.791C82.7819 49.476 82.4694 49.203 82.0319 48.993C81.7194 48.825 81.3444 48.72 81.0319 48.72C80.3861 48.72 79.8028 49.098 79.3653 49.728C79.1569 50.064 79.1153 50.442 79.2194 50.82C79.3653 51.555 80.1778 52.101 81.0736 52.206H81.2403C81.7611 52.206 82.2403 51.891 82.7403 51.198C82.9903 50.715 83.0944 50.232 82.8861 49.791Z" fill="#DA4F7C"/>
<path d="M106.126 70.4761C106.605 70.4761 106.876 69.9301 107.147 69.4471C107.189 69.3001 107.293 69.0691 107.397 68.9641C108.001 67.9981 108.689 66.9901 109.105 65.7931C110.709 61.1311 113.168 56.8891 115.501 52.7521C116.793 50.4841 118.126 48.1321 119.334 45.7591C120.793 42.7561 123.022 41.4751 126.543 41.4751C127.397 41.4751 128.355 41.5171 129.459 41.6851C130.314 41.7901 131.168 42.0001 132.084 42.2101C132.668 42.3781 133.314 42.4831 133.939 42.6511H134.168C134.418 42.6931 134.689 42.7561 134.897 42.7561C135.272 42.7561 135.439 42.5881 135.376 42.2101C135.376 42.0001 135.272 41.8321 135.168 41.7271C135.022 41.5801 134.689 41.5171 134.376 41.5171C134.168 41.5171 134.001 41.4751 133.793 41.4121C130.48 40.6561 127.168 40.4461 123.293 40.2361L122.855 40.1731L123.084 39.8581C125.251 36.7921 127.334 33.5791 129.355 30.4501L130.647 28.5181C132.605 25.5151 134.897 22.0291 137.418 18.7951C138.689 17.1361 139.918 15.6241 141.147 14.2801C141.564 13.8601 141.876 13.4191 142.251 12.9991C142.897 12.1801 143.543 11.3821 144.397 10.6891C144.439 10.6261 144.772 10.4161 145.147 10.4161H145.355L145.397 10.4791C145.501 10.4791 145.668 10.5841 145.772 10.7941C146.897 12.6631 143.647 24.2131 143.001 26.4811C141.564 31.3741 139.918 36.2461 138.376 40.9921C136.022 48.0271 133.564 55.2721 131.814 62.7901C131.751 62.8951 131.709 63.1051 131.605 63.2731C131.439 63.6511 131.272 64.0291 131.439 64.3021C131.501 64.4491 131.605 64.5541 131.751 64.6801C131.98 64.7851 132.189 64.8271 132.293 64.8271C132.73 64.8271 132.834 64.3021 132.939 63.8191C132.98 63.6511 132.98 63.4831 133.043 63.3781C134.855 58.3381 136.605 53.4451 138.209 48.4471C138.855 46.5151 139.48 44.5831 140.126 42.6511C142.959 34.1671 145.876 25.4101 147.439 16.0651C147.689 14.1751 148.022 12.3061 147.272 10.2061C146.897 9.03013 146.314 8.48413 145.564 8.48413C145.251 8.48413 144.918 8.54713 144.605 8.69413C143.168 9.34513 142.147 10.4161 141.189 11.5501C135.814 17.8921 131.168 24.9691 126.751 31.7941C125.251 34.0621 123.814 36.2461 122.376 38.4511C121.418 39.8581 120.418 40.4461 118.751 40.4461C118.751 40.4461 117.793 40.3831 117.418 40.3831C113.918 40.3831 110.334 40.9291 106.439 41.9581L106.126 42.0631C105.376 42.2101 104.751 42.3781 104.793 43.1761C104.793 43.7851 105.272 44.1001 106.022 44.5201C106.189 44.6251 106.334 44.6881 106.501 44.7931C108.793 46.2421 110.23 48.1321 110.876 50.6521C111.668 53.7181 111.459 56.1751 110.168 58.2751C108.689 60.7531 106.814 64.0291 105.48 67.5781C105.439 67.7881 105.376 67.9561 105.272 68.1031C104.855 69.0271 104.626 69.6151 105.439 70.2031C105.709 70.3711 105.918 70.4761 106.126 70.4761ZM119.668 41.6851L120.084 41.7271L112.522 54.0331L112.418 53.3821C111.98 49.5181 110.501 46.6831 107.73 44.5201C107.084 44.0371 106.918 43.6591 106.98 43.4491C106.98 43.2391 107.084 42.9661 107.772 42.8191C110.709 42.2101 113.793 41.5801 117.272 41.5801C118.064 41.5801 118.855 41.6221 119.668 41.6851Z" fill="#DA4F7C"/>
<path d="M166.997 4.61994C166.664 4.34694 166.414 4.24194 166.185 4.24194C165.768 4.24194 165.497 4.61994 165.185 4.99794C165.122 5.10294 165.018 5.24994 164.914 5.37594C159.268 11.5499 155.685 19.2359 151.955 26.8589C145.351 40.2779 138.685 54.8519 137.31 70.896L137.247 71.4839C137.101 73.2689 136.935 75.1379 137.518 77.091C138.06 78.96 139.289 79.8839 141.247 79.8839H141.351C141.726 79.8839 142.164 79.7579 142.101 79.0649C142.06 78.8549 141.935 78.5819 141.789 78.4139C141.685 78.3089 141.518 78.2669 141.351 78.2039C140.56 78.0989 139.914 77.889 139.539 77.448C139.018 76.86 139.06 76.0619 139.06 75.3689C139.06 75.1379 139.06 74.991 139.06 74.823C138.955 70.413 139.539 65.9609 140.872 60.6899C144.601 45.7169 151.101 31.5839 158.935 18.7949C160.705 15.8969 162.518 13.1039 164.435 10.3529C164.476 10.2479 164.539 10.2059 164.539 10.1429C165.33 9.02994 166.08 7.89594 166.935 6.86694C167.518 6.00594 167.851 5.37594 166.997 4.61994Z" fill="#DA4F7C"/>
<path d="M172.957 42.6512C172.311 42.1052 167.728 46.4522 167.04 46.9352C164.957 48.5102 162.623 49.8542 159.894 50.4842C158.623 50.8202 156.915 51.3452 155.644 50.0642C154.415 48.8252 155.436 47.5862 155.853 46.5152C157.498 42.4832 159.748 38.8922 162.04 35.2802C162.311 34.7552 162.998 34.1672 162.04 33.4112C161.123 32.6552 160.644 33.4112 160.228 33.8312C156.978 37.4432 154.623 41.6852 153.29 46.5782C152.915 47.9222 152.873 49.5812 154.478 50.9672C156.019 52.3742 157.561 52.1012 158.998 51.7232C162.415 50.8622 165.457 49.2452 168.103 47.3762C169.436 46.4102 170.728 45.3812 171.957 44.3102C172.269 44.0372 173.123 43.6172 173.123 43.0712C173.123 42.8612 173.061 42.6932 172.957 42.6512ZM164.332 30.8282C165.498 30.7232 166.29 30.2822 166.248 29.1062C165.936 27.9932 165.228 27.6152 164.373 27.7202C163.165 27.7622 162.457 28.3082 162.79 29.6942C163.04 30.6182 163.582 30.9332 164.332 30.8282Z" fill="#DA4F7C"/>
<path d="M201.316 42.1681C201.211 42.0631 201.149 42.0631 201.045 42.0631C200.732 42.0631 200.461 42.5461 200.295 42.8611L200.253 43.0291C198.92 45.5491 196.836 47.5861 195.191 49.2451C193.211 51.2401 190.816 53.3821 187.503 54.4111C187.253 54.5161 186.92 54.6211 186.649 54.6211C186.295 54.6211 185.961 54.4741 185.691 54.2011C185.211 53.7181 185.441 53.1721 185.586 52.7941L185.691 52.5841C185.92 51.9331 186.17 51.3031 186.441 50.7151C186.92 49.5811 187.399 48.4051 187.732 47.1661C187.982 46.2001 187.774 45.3391 187.253 44.6881C186.711 44.1001 185.961 43.7851 185.003 43.7851C184.836 43.7851 184.628 43.7851 184.482 43.8271C183.149 43.9951 181.816 44.3731 180.378 45.0031C179.149 45.4861 177.961 45.9691 176.857 46.5151C176.482 46.7251 176.17 46.9351 175.795 47.1661C175.524 47.3761 175.253 47.5861 174.941 47.7541C174.67 47.8591 174.024 48.1321 173.545 48.1321C173.336 48.1321 173.17 48.0691 173.066 47.9641C172.753 47.6911 172.899 47.3131 172.961 47.2081L174.836 42.3151C174.878 42.2101 174.941 42.0631 175.045 41.8951C175.316 41.2441 175.836 40.1311 175.524 39.4171C175.42 39.2071 175.253 39.1021 175.045 38.9341C174.878 38.8921 174.774 38.8921 174.67 38.8921C174.399 38.8921 174.191 39.1651 174.024 39.4171L173.92 39.5851C172.42 41.8951 171.316 44.5201 170.732 47.4811L170.67 47.6911C170.503 48.3421 170.357 48.9301 171.107 49.5811C171.461 49.8961 171.795 50.0641 172.107 50.0641C172.482 50.0641 172.857 49.8541 173.17 49.6861L173.336 49.5811C174.086 49.2031 174.774 48.8251 175.461 48.4051C177.003 47.5441 178.67 46.6201 180.482 45.9691C181.857 45.4861 183.253 45.1291 184.628 44.7931C184.836 44.7511 185.003 44.7511 185.107 44.7511C185.545 44.7511 185.857 44.8561 186.128 45.1711C186.607 45.6541 186.399 46.0951 186.295 46.3471L186.17 46.5151C186.024 46.9981 185.753 47.3761 185.482 47.7961L185.003 48.6571C184.253 49.8961 183.524 51.1981 183.524 52.8571C183.524 53.7601 183.732 54.4741 184.211 54.9571C184.691 55.3771 185.378 55.6501 186.295 55.6501H186.399C187.295 55.5871 187.941 55.4821 188.524 55.1041C194.003 51.9961 198.107 48.2371 201.045 43.6591C201.107 43.5541 201.211 43.4491 201.316 43.3441C201.524 43.0711 201.795 42.8611 201.691 42.5881C201.691 42.4411 201.524 42.3151 201.316 42.1681Z" fill="#DA4F7C"/>
<path d="M227.593 40.6561C227.385 40.6561 227.051 40.9291 226.843 41.0971L226.676 41.2021C226.197 41.4751 225.822 41.8321 225.405 42.1681C225.197 42.3781 224.968 42.5461 224.718 42.6931C224.239 43.0711 223.801 43.4491 223.322 43.8271C222.676 44.3731 222.051 44.8981 221.364 45.4441C219.28 46.9351 217.03 48.6151 214.739 50.1691C214.426 50.3791 213.301 50.9671 212.551 50.9671C212.447 50.9671 212.343 50.9671 212.239 50.9251C212.072 50.8621 211.968 50.8201 211.926 50.6521C211.822 50.4841 211.822 50.2321 211.926 49.8541L212.239 49.0981C212.51 48.2371 212.822 47.3761 213.197 46.5781L214.155 44.5831C215.385 42.0631 216.614 39.4801 217.78 36.8971C218.093 36.3091 218.26 35.8261 217.614 35.3431C217.405 35.1331 217.197 35.0281 216.926 35.0281C216.614 35.0281 216.301 35.1751 215.968 35.3431C215.551 35.5111 215.176 35.7631 214.843 36.0991L214.697 36.2461C214.26 36.6871 213.843 37.0651 213.26 37.0651C212.718 37.0651 212.135 36.6241 211.447 35.7211C211.01 35.1331 210.114 35.1331 209.197 35.0701H208.989C206.864 35.0701 205.155 35.9311 203.551 37.6531C201.364 40.1311 199.885 43.1341 199.03 46.5151L198.926 46.8931C198.593 48.2371 198.176 49.7281 199.718 50.8201C200.093 51.0721 200.468 51.2401 200.843 51.2401C201.635 51.2401 202.322 50.5891 202.968 50.0641L203.385 49.6861C205.468 48.0271 207.176 45.9691 208.885 43.9951C209.635 43.0711 210.385 42.1681 211.176 41.3071C211.343 41.0971 211.551 40.9291 211.718 40.7191L212.072 40.3411L212.197 40.5091C212.676 40.9921 212.885 41.0341 212.989 41.0341C213.197 41.0341 213.197 40.5511 213.197 40.2361V40.0681C213.26 38.9341 213.843 38.0731 214.364 37.4851C214.364 37.4851 215.447 36.3091 216.135 36.3091C216.239 36.3091 216.343 36.3721 216.405 36.3721C216.551 36.4771 216.655 36.5821 216.718 36.7291C216.989 37.3801 216.343 38.4511 215.697 39.3751C215.593 39.5221 215.551 39.6901 215.489 39.7531C215.218 40.2781 213.885 42.7561 213.885 42.7561C212.885 44.6251 211.864 46.7251 211.239 49.0351C211.176 49.2031 211.114 49.3711 211.072 49.5181C210.739 50.3371 210.53 51.0721 211.489 51.8911C211.864 52.2061 212.239 52.3741 212.614 52.3741C213.093 52.3741 213.51 52.1011 213.947 51.8911L214.26 51.6811C219.551 48.7621 224.01 45.3391 227.635 41.4751C227.864 41.2441 227.968 40.9921 227.905 40.8241C227.864 40.7191 227.739 40.7191 227.593 40.6561ZM211.968 38.6191C210.864 39.8581 209.78 41.2021 208.78 42.4831C206.593 45.1711 204.301 48.0271 201.218 49.8961C201.051 50.0011 200.885 50.0641 200.739 50.0641C200.572 50.0641 200.405 50.0011 200.26 49.8961C199.78 49.4131 199.885 48.2371 199.926 47.8591C200.135 47.0611 200.572 46.3471 200.947 45.7171C201.093 45.3811 201.26 45.1291 201.426 44.8561C202.864 42.1051 204.614 39.0391 207.76 37.1701C208.405 36.7921 209.197 36.5191 210.051 36.3721C210.155 36.3091 210.218 36.3091 210.322 36.3091C210.905 36.3091 211.551 36.6871 211.968 37.2121C212.343 37.7581 212.343 38.2411 211.968 38.6191Z" fill="#DA4F7C"/>
<path d="M266.943 74.277C267.297 74.277 267.631 74.067 267.901 73.752L268.006 73.584C268.318 73.164 268.693 72.681 268.964 72.198C272.11 66.339 274.026 59.409 274.714 50.967C275.297 43.617 276.797 42.21 284.297 42.21C285.318 42.21 286.339 42.168 287.401 42.168C288.401 42.168 289.422 42.168 290.485 42.168C291.61 42.168 292.735 42.168 294.11 42.21C294.214 42.21 294.422 42.273 294.651 42.273C295.131 42.273 295.172 42.168 295.172 42C295.026 41.832 294.318 41.622 293.526 41.517C290.276 41.244 287.026 41.097 283.881 40.992L282.985 40.929L281.964 40.866C281.214 40.866 280.464 40.866 279.672 40.761C279.61 40.761 279.506 40.719 279.401 40.719C279.193 40.656 278.922 40.614 278.61 40.614C278.547 40.614 278.506 40.614 278.443 40.614L278.068 40.383L280.214 35.133C284.089 25.683 287.776 16.758 291.818 7.896C292.089 7.413 292.401 6.93 293.256 6.867L295.506 6.72C298.422 6.489 301.526 6.279 304.568 6.279C306.318 6.279 307.922 6.342 309.464 6.489L310.797 6.594C314.256 6.93 317.881 7.245 321.506 8.904C321.672 8.967 321.881 9.135 322.089 9.24C322.401 9.45 322.735 9.66 322.943 9.66C323.006 9.66 323.151 9.66 323.256 9.177C323.36 8.799 323.318 8.274 321.881 7.518C321.131 7.14 320.339 6.93 319.693 6.762C315.526 5.691 311.381 5.103 307.276 5.103H305.256C304.339 5.103 303.381 5.04 302.485 5.04C299.818 5.04 296.61 5.145 293.36 5.733L292.943 5.859C292.943 5.859 293.318 4.83 293.36 4.62C293.464 4.347 293.526 4.179 293.589 3.969C293.631 3.486 293.901 3.003 294.11 2.583C294.422 1.932 294.756 1.239 294.547 0.693C294.422 0.483 294.214 0.315 293.901 0.105C293.693 0 293.526 0 293.36 0C292.36 0 291.547 1.659 291.443 3.276C291.297 4.893 290.485 5.691 288.839 5.859C284.297 6.279 279.714 6.762 275.256 7.308C267.256 8.211 260.797 9.24 255.006 10.416L254.631 10.479C253.61 10.689 252.714 10.857 252.756 11.97C252.818 13.146 253.818 13.65 254.881 14.175L255.318 14.385C264.693 19.173 270.297 26.859 272.901 38.556C273.276 40.173 272.797 40.992 271.401 40.992C271.256 40.992 271.151 40.992 270.985 40.992C270.401 40.929 269.86 40.866 269.339 40.866C267.839 40.866 266.464 41.034 265.068 41.202C263.839 41.307 262.61 41.475 261.401 41.517H261.172C260.381 41.517 259.839 41.58 260.006 42.168C260.068 42.378 260.172 42.546 260.318 42.651C260.422 42.756 260.651 42.819 260.922 42.819C261.068 42.819 261.235 42.819 261.401 42.756C261.547 42.756 261.714 42.756 261.881 42.756C263.631 42.756 265.443 42.756 267.256 42.756H273.276L273.339 42.966C273.693 44.751 273.589 46.41 273.068 48.027C271.089 53.382 269.276 58.821 267.526 64.071C266.61 66.927 265.818 69.51 265.61 72.345C265.547 73.164 265.547 73.647 266.235 74.067C266.506 74.172 266.714 74.277 266.943 74.277ZM271.526 58.485L271.943 58.653C271.735 62.79 270.506 66.507 268.276 69.678L267.901 69.447L271.526 58.485ZM289.839 7.245L289.631 7.623C286.235 14.616 283.235 21.693 280.36 28.518C278.61 32.655 276.901 36.729 275.089 40.824L274.818 41.412L274.651 40.719C273.547 34.692 271.631 29.547 268.797 24.969C265.756 19.929 261.401 16.002 255.11 12.558L254.568 12.306L255.047 12.18C268.276 9.618 278.818 8.106 289.422 7.308L289.839 7.245Z" fill="#DA4F7C"/>
<path d="M316.709 42.6512C316.063 42.1052 311.48 46.4522 310.792 46.9352C308.709 48.5102 306.376 49.8542 303.647 50.4842C302.376 50.8202 300.667 51.3452 299.397 50.0642C298.167 48.8252 299.188 47.5862 299.605 46.5152C301.251 42.4832 303.501 38.8922 305.792 35.2802C306.063 34.7552 306.751 34.1672 305.792 33.4112C304.876 32.6552 304.397 33.4112 303.98 33.8312C300.73 37.4432 298.376 41.6852 297.042 46.5782C296.667 47.9222 296.626 49.5812 298.23 50.9672C299.772 52.3742 301.313 52.1012 302.751 51.7232C306.167 50.8622 309.209 49.2452 311.855 47.3762C313.188 46.4102 314.48 45.3812 315.709 44.3102C316.022 44.0372 316.876 43.6172 316.876 43.0712C316.876 42.8612 316.813 42.6932 316.709 42.6512ZM308.084 30.8282C309.251 30.7232 310.042 30.2822 310.001 29.1062C309.688 27.9932 308.98 27.6152 308.126 27.7202C306.917 27.7622 306.209 28.3082 306.542 29.6942C306.792 30.6182 307.334 30.9332 308.084 30.8282Z" fill="#DA4F7C"/>
<path d="M338.464 4.61994C338.13 4.34694 337.88 4.24194 337.651 4.24194C337.235 4.24194 336.964 4.61994 336.651 4.99794C336.589 5.10294 336.485 5.24994 336.38 5.37594C330.735 11.5499 327.151 19.2359 323.422 26.8589C316.818 40.2779 310.151 54.8519 308.776 70.896L308.714 71.4839C308.568 73.2689 308.401 75.1379 308.985 77.091C309.526 78.96 310.755 79.8839 312.714 79.8839H312.818C313.193 79.8839 313.63 79.7579 313.568 79.0649C313.526 78.8549 313.401 78.5819 313.255 78.4139C313.151 78.3089 312.985 78.2669 312.818 78.2039C312.026 78.0989 311.38 77.889 311.005 77.448C310.485 76.86 310.526 76.0619 310.526 75.3689C310.526 75.1379 310.526 74.991 310.526 74.823C310.422 70.413 311.005 65.9609 312.339 60.6899C316.068 45.7169 322.568 31.5839 330.401 18.7949C332.172 15.8969 333.985 13.1039 335.901 10.3529C335.943 10.2479 336.005 10.2059 336.005 10.1429C336.797 9.02994 337.547 7.89594 338.401 6.86694C338.985 6.00594 339.318 5.37594 338.464 4.61994Z" fill="#DA4F7C"/>
<path d="M344.423 42.6512C343.778 42.1052 339.194 46.4522 338.507 46.9352C336.424 48.5102 334.09 49.8542 331.361 50.4842C330.09 50.8202 328.382 51.3452 327.111 50.0642C325.882 48.8252 326.903 47.5862 327.319 46.5152C328.965 42.4832 331.215 38.8922 333.507 35.2802C333.778 34.7552 334.465 34.1672 333.507 33.4112C332.59 32.6552 332.111 33.4112 331.694 33.8312C328.444 37.4432 326.09 41.6852 324.757 46.5782C324.382 47.9222 324.34 49.5812 325.944 50.9672C327.486 52.3742 329.028 52.1012 330.465 51.7232C333.882 50.8622 336.924 49.2452 339.569 47.3762C340.903 46.4102 342.194 45.3812 343.423 44.3102C343.736 44.0372 344.59 43.6172 344.59 43.0712C344.59 42.8612 344.528 42.6932 344.423 42.6512ZM335.798 30.8282C336.965 30.7232 337.757 30.2822 337.715 29.1062C337.403 27.9932 336.694 27.6152 335.84 27.7202C334.632 27.7622 333.924 28.3082 334.257 29.6942C334.507 30.6182 335.048 30.9332 335.798 30.8282Z" fill="#DA4F7C"/>
<path d="M368.241 41.202C368.136 41.202 368.032 41.202 367.991 41.202C367.241 41.349 366.595 41.58 365.949 41.832C365.595 41.958 365.261 42.063 364.949 42.168C364.303 42.378 363.72 42.588 363.136 42.819L362.345 43.071C362.22 43.134 361.97 43.176 361.699 43.239C361.116 43.407 359.928 43.659 359.886 43.785L359.511 43.659L359.616 43.071C359.678 42.756 359.678 42.483 359.72 42.105C359.782 40.761 359.824 39.48 358.386 38.409C357.761 37.863 357.116 37.653 356.47 37.653C355.782 37.653 355.136 37.863 354.553 38.136C352.907 38.787 351.574 39.858 350.136 41.307C348.907 42.483 347.845 43.827 346.782 45.171C345.761 46.452 344.741 47.796 343.532 48.993L343.261 48.72L343.47 48.132C343.636 47.754 343.782 47.313 344.011 46.893L346.178 41.832C348.116 37.443 350.074 32.97 351.949 28.581C351.991 28.476 352.053 28.308 352.157 28.203C352.532 27.489 352.699 27.006 351.886 26.418C351.678 26.313 351.511 26.208 351.366 26.208C351.032 26.208 350.824 26.481 350.616 26.754C350.511 26.964 350.345 27.174 350.136 27.342C349.178 27.867 349.074 28.896 348.949 29.967C348.907 30.555 348.803 31.269 348.595 31.794L348.324 32.34C345.761 37.758 343.157 43.407 340.699 49.035C336.657 58.065 323.761 86.583 320.241 95.886L320.178 96.096C320.011 96.537 319.803 97.02 319.97 97.44C320.074 97.65 320.282 97.818 320.553 97.986C320.866 98.133 321.136 98.238 321.345 98.238C321.949 98.238 322.428 97.818 322.47 97.167C322.574 95.781 323.116 94.584 323.636 93.471C323.866 92.925 324.116 92.4 324.282 91.854C328.345 80.304 342.678 51.828 349.324 44.268C351.032 42.378 352.907 40.509 355.616 39.522C355.949 39.375 356.303 39.312 356.574 39.312C356.949 39.312 357.282 39.417 357.491 39.648C357.866 40.005 357.97 40.551 357.97 41.349C357.803 43.617 357.324 45.339 355.303 46.305C351.511 48.027 348.595 50.001 346.407 52.311C346.241 52.479 346.136 52.584 345.97 52.752C345.011 53.655 343.949 54.726 345.282 56.175C345.761 56.721 346.345 56.994 346.928 56.994C347.782 56.994 348.636 56.448 349.386 56.028L349.595 55.923C352.949 53.928 355.678 50.967 358.011 46.83C358.491 45.969 359.136 45.444 359.886 45.129C361.532 44.478 363.178 43.827 364.886 43.176C365.532 42.966 366.282 42.819 366.97 42.651C367.991 42.441 369.053 42.21 369.907 41.685C370.116 41.58 370.116 41.517 370.116 41.517C370.011 41.349 369.157 41.202 368.241 41.202ZM348.157 55.818C347.845 55.965 347.261 56.133 346.72 56.133C346.303 56.133 345.97 56.028 345.761 55.755C345.553 55.482 345.553 55.167 345.699 54.684C346.241 53.235 347.741 52.206 349.011 51.345C349.282 51.198 349.491 51.03 349.761 50.862C350.511 50.274 351.366 49.791 352.324 49.203C352.803 48.993 353.282 48.72 353.761 48.447C353.866 48.447 354.011 48.405 354.178 48.342C354.449 48.237 354.866 48.069 354.991 47.922L355.303 48.132C353.428 51.891 351.199 54.348 348.157 55.818Z" fill="#DA4F7C"/>
</svg>
