<svg width="121" height="129" viewBox="0 0 121 129" fill="none" xmlns="http://www.w3.org/2000/svg">
<path d="M7.88013 46.0791C8.69263 40.9446 10.7603 38.0624 12.7812 36.4506C13.9583 35.5056 15.552 36.8286 14.8749 38.1831C11.4583 45.0186 13.427 54.0329 17.1093 62.5064C12.9947 57.3089 9.4895 51.6494 7.88013 46.0791Z" fill="#DA4F7C"/>
<mask id="mask0_88_264" style="mask-type:luminance" maskUnits="userSpaceOnUse" x="0" y="31" width="70" height="98">
<path d="M0 31.3896H69.3333V128.016H0V31.3896Z" fill="white"/>
</mask>
<g mask="url(#mask0_88_264)">
<path d="M58.9948 84.336C53.8854 79.632 39.4271 67.494 39.224 60.1807C39.0156 52.8622 26.5781 61.614 39.3594 78.3352C39.3594 78.3352 0.0104077 61.635 6.91666 33.0067C7.31249 31.3635 4.59895 30.8805 3.94791 32.4397C1.13541 39.1807 -8.06251 57.2302 24.6354 87.4177C47.1615 108.213 57.6823 110.129 59.9427 128.126C59.9427 128.126 79.2552 103 58.9948 84.336Z" fill="#DA4F7C"/>
<path d="M14.2343 46.1999C14.1926 51.1874 15.8072 56.7104 18.151 62.0759C16.6979 55.5869 16.7031 49.2869 19.5937 44.3992C20.3593 43.0972 18.8645 41.6639 17.6249 42.5197C16.4687 43.3177 15.276 44.4884 14.2343 46.1999Z" fill="#DA4F7C"/>
</g>
<mask id="mask1_88_264" style="mask-type:luminance" maskUnits="userSpaceOnUse" x="24" y="23" width="97" height="102">
<path d="M24 23.3257H120.948V124.126H24V23.3257Z" fill="white"/>
</mask>
<g mask="url(#mask1_88_264)">
<path d="M107.807 29.5994C95.7292 21.7611 78.0105 22.9056 57.6355 32.7599C42.8073 24.4491 24.0834 24.9216 24.0834 24.9216C51.8907 33.9044 57.7292 49.6386 57.7292 49.6386C72.4532 39.0756 91.8386 37.3169 99.7084 42.2781C120.823 55.5921 95.0625 104.491 69.0105 123.454C105.568 102.522 119.807 76.0356 120.766 57.4769C121.385 45.5016 116.662 35.3429 107.807 29.5994Z" fill="#DA4F7C"/>
</g>
<mask id="mask2_88_264" style="mask-type:luminance" maskUnits="userSpaceOnUse" x="72" y="0" width="30" height="29">
<path d="M72 0H101.333V28.7017H72V0Z" fill="white"/>
</mask>
<g mask="url(#mask2_88_264)">
<path d="M100.599 14.2115C100.599 22.0497 94.2969 28.397 86.526 28.397C78.7552 28.397 72.4531 22.0497 72.4531 14.2115C72.4531 6.3785 78.7552 0.03125 86.526 0.03125C94.2969 0.03125 100.599 6.3785 100.599 14.2115Z" fill="#DA4F7C"/>
</g>
</svg>
