<svg width="40" height="40" viewBox="0 0 40 40" fill="none" xmlns="http://www.w3.org/2000/svg">
<path d="M34.7453 24.7594L27.3844 21.4609L27.3641 21.4516C26.9819 21.2881 26.5651 21.2225 26.1512 21.2607C25.7374 21.2989 25.3395 21.4397 24.9938 21.6703C24.953 21.6972 24.9139 21.7264 24.8766 21.7578L21.0735 25C18.6641 23.8297 16.1766 21.3609 15.0063 18.9828L18.2531 15.1219C18.2844 15.0828 18.3141 15.0437 18.3422 15.0016C18.5679 14.6567 18.7048 14.2614 18.7408 13.8509C18.7768 13.4403 18.7107 13.0273 18.5485 12.6484V12.6297L15.2406 5.25624C15.0262 4.76134 14.6574 4.34907 14.1894 4.08099C13.7213 3.8129 13.1792 3.70337 12.6438 3.76874C10.5265 4.04734 8.58311 5.08713 7.17647 6.69389C5.76984 8.30065 4.99619 10.3645 5.00001 12.5C5.00001 24.9062 15.0938 35 27.5 35C29.6355 35.0038 31.6994 34.2302 33.3061 32.8235C34.9129 31.4169 35.9527 29.4735 36.2313 27.3562C36.2968 26.821 36.1875 26.279 35.9197 25.811C35.6519 25.343 35.2399 24.9741 34.7453 24.7594ZM27.5 32.5C22.1975 32.4942 17.1137 30.3852 13.3643 26.6357C9.6148 22.8863 7.5058 17.8025 7.50001 12.5C7.49414 10.9742 8.04384 9.49842 9.04648 8.34828C10.0491 7.19814 11.4361 6.45228 12.9485 6.24999C12.9478 6.25622 12.9478 6.2625 12.9485 6.26874L16.2297 13.6125L13 17.4781C12.9672 17.5158 12.9374 17.556 12.911 17.5984C12.6758 17.9592 12.5379 18.3747 12.5105 18.8045C12.4831 19.2343 12.5672 19.6638 12.7547 20.0516C14.1703 22.9469 17.0875 25.8422 20.0141 27.2562C20.4046 27.4419 20.8367 27.5231 21.2681 27.4919C21.6994 27.4607 22.1153 27.3181 22.475 27.0781C22.5152 27.0512 22.5538 27.022 22.5906 26.9906L26.3891 23.75L33.7328 27.0391H33.75C33.5502 28.5535 32.8054 29.9433 31.6551 30.9484C30.5047 31.9536 29.0276 32.5051 27.5 32.5Z" fill="black"/>
</svg>
