<svg width="500" height="137" viewBox="0 0 500 137" fill="none" xmlns="http://www.w3.org/2000/svg">
<g clip-path="url(#clip0_88_97)">
<path d="M550 -50.3999H-50V554.4H550V-50.3999Z" fill="white"/>
<path d="M114.199 61.5511L114.678 60.5221C115.011 59.8921 115.324 59.2411 115.595 58.6531C116.97 55.5451 118.303 52.1431 118.407 48.1741C118.511 45.1711 117.511 42.4201 115.636 40.5511C113.72 38.6611 111.157 37.6531 108.136 37.6531H107.699C106.053 37.6951 104.511 38.1361 102.949 38.5561C96.1987 40.4461 91.6154 44.6881 86.7612 49.2451L86.2196 49.7281L85.8446 49.4131L87.3446 46.5571C88.5737 44.2471 89.8029 41.9371 90.9696 39.6271C91.0737 39.3121 91.2821 38.9971 91.4904 38.6611C92.4071 37.4431 92.8862 36.5191 91.6154 35.5531C91.1779 35.2381 90.8029 35.0701 90.4279 35.0701C89.7404 35.0701 89.1571 35.6581 88.5737 36.2041C88.1987 36.5821 87.8237 36.9601 87.3862 37.1701C87.3446 37.2121 87.2404 37.3171 87.1779 37.4851C87.0321 37.7581 86.9696 37.9681 87.0737 38.1361C87.0737 38.1361 87.1362 38.2411 87.2821 38.2831C88.0321 38.4511 88.4071 38.6611 88.5737 38.9971C88.7196 39.3751 88.4071 39.6271 88.1362 39.9001C88.0321 39.9631 87.9904 40.0681 87.9279 40.1101C83.6571 47.2711 80.4071 55.2721 77.4904 62.8951C76.1987 66.1711 74.5529 68.2711 72.0946 69.7621C67.9487 72.3031 65.5946 75.5161 65.0737 79.5481C64.8029 81.6481 65.2821 83.6221 66.4487 85.2391C67.6779 86.8561 69.5946 88.0321 71.9487 88.6831C73.2821 89.0611 74.4904 89.2081 75.8237 89.2081C78.4487 89.2081 80.8446 88.5151 83.0321 87.7591C94.6987 83.6851 104.178 76.2091 112.074 64.8901L114.199 61.5511ZM96.9904 62.7271C96.8862 62.7271 96.7821 62.7271 96.6779 62.7271C94.8654 62.8951 93.0946 63.1051 91.3446 63.3151C90.6571 63.4411 89.9487 63.5461 89.2612 63.6511C88.8862 63.6931 88.5737 63.7561 88.1987 63.8191C87.8862 63.8611 87.5529 64.0291 87.2404 64.0291C85.8446 64.2391 84.4696 64.5121 83.1362 64.7851C82.4487 64.9321 81.8029 65.1001 81.1154 65.2681C80.7821 65.3101 80.4696 65.3731 80.1571 65.4781C79.8237 65.5201 79.5112 65.6881 79.1987 65.6881C83.8237 56.1331 89.3237 46.5571 98.8029 41.5171C101.615 40.0051 104.761 38.9341 108.345 38.8921C110.053 38.8921 111.907 39.1441 113.511 40.2361C116.324 42.2101 117.074 45.8641 116.824 48.7201C116.449 53.2771 114.574 57.2041 112.345 60.7951C106.636 69.9931 98.4904 77.3431 88.7821 82.6141C84.3654 85.0291 79.4071 87.0661 73.6571 86.6881C71.7196 86.5831 69.4904 86.0581 67.9904 84.3781C66.7196 82.8871 66.5112 80.8921 66.7821 79.2751C67.5112 75.3061 70.6154 72.7231 73.5946 70.3081C74.5529 71.2741 73.0529 72.7231 74.0737 73.6891C74.4487 74.0251 75.0946 74.0251 75.4071 73.7521C75.7196 73.4791 75.8862 73.0381 76.0529 72.6811C77.5321 68.9641 80.9487 66.6541 84.8446 65.4151C86.2196 64.9951 87.6571 64.6591 89.1571 64.4491C89.8029 64.4491 90.3862 64.3021 90.9696 64.1761C91.6154 64.1341 92.2404 64.0711 92.8862 64.0291C94.1154 63.9241 95.2821 63.8611 96.5529 63.9241C96.7821 63.9241 97.0321 63.9661 97.1987 63.8611C97.2612 63.8611 97.3029 63.8191 97.3029 63.7561C97.5321 63.4831 97.4696 62.8321 96.9904 62.7271Z" fill="#DA4F7C"/>
<path d="M141.967 63.819C141.821 63.819 141.654 63.924 141.446 63.966C141.342 64.029 141.175 64.071 141.071 64.134C140.737 64.176 140.425 64.239 140.112 64.239C138.133 64.239 136.05 63.105 134.571 61.278C133.237 59.619 132.383 58.821 131.529 58.821C130.987 58.821 130.362 59.136 129.342 59.892C127.842 61.005 126.467 62.202 125.029 63.441L122.779 65.31C122.633 65.478 122.467 65.625 122.258 65.856C121.821 66.276 121.404 66.759 120.717 66.927H120.55L120.487 66.822C120.237 66.486 120.967 64.827 120.967 64.827C121.342 64.134 121.675 63.441 121.987 62.727C122.467 61.656 122.904 60.522 123.383 59.409L123.737 58.38C123.8 58.275 123.904 58.107 123.967 58.002C124.112 57.624 124.383 57.246 124.217 56.889C124.112 56.658 123.967 56.511 123.696 56.343C123.529 56.238 123.383 56.175 123.217 56.175C122.779 56.175 122.467 56.721 122.196 57.099L122.154 57.246C120.008 60.753 118.321 64.659 116.862 69.237L116.821 69.447C116.612 70.035 116.383 70.686 117.196 71.274C117.467 71.484 117.717 71.589 117.946 71.589C118.321 71.589 118.529 71.274 118.737 70.959C118.842 70.854 118.946 70.728 119.05 70.623L120.342 69.279C123.154 66.339 126.092 63.315 129.446 60.9C130.404 60.207 130.946 59.829 131.529 59.829C132.279 59.829 132.862 60.48 134.133 61.992C135.675 63.756 137.967 64.89 140.008 64.89C140.8 64.89 141.55 64.722 142.133 64.344C142.342 64.239 142.404 64.071 142.342 64.029C142.342 63.966 142.237 63.861 141.967 63.819Z" fill="#DA4F7C"/>
<path d="M147.886 70.791C147.782 70.476 147.469 70.203 147.032 69.993C146.719 69.825 146.344 69.72 146.032 69.72C145.386 69.72 144.803 70.098 144.365 70.728C144.157 71.064 144.115 71.442 144.219 71.82C144.365 72.555 145.178 73.101 146.074 73.206H146.24C146.761 73.206 147.24 72.891 147.74 72.198C147.99 71.715 148.094 71.232 147.886 70.791Z" fill="#DA4F7C"/>
<path d="M171.126 91.4761C171.605 91.4761 171.876 90.9301 172.147 90.4471C172.189 90.3001 172.293 90.0691 172.397 89.9641C173.001 88.9981 173.689 87.9901 174.105 86.7931C175.709 82.1311 178.168 77.8891 180.501 73.7521C181.793 71.4841 183.126 69.1321 184.334 66.7591C185.793 63.7561 188.022 62.4751 191.543 62.4751C192.397 62.4751 193.355 62.5171 194.459 62.6851C195.314 62.7901 196.168 63.0001 197.084 63.2101C197.668 63.3781 198.314 63.4831 198.939 63.6511H199.168C199.418 63.6931 199.689 63.7561 199.897 63.7561C200.272 63.7561 200.439 63.5881 200.376 63.2101C200.376 63.0001 200.272 62.8321 200.168 62.7271C200.022 62.5801 199.689 62.5171 199.376 62.5171C199.168 62.5171 199.001 62.4751 198.793 62.4121C195.48 61.6561 192.168 61.4461 188.293 61.2361L187.855 61.1731L188.084 60.8581C190.251 57.7921 192.334 54.5791 194.355 51.4501L195.647 49.5181C197.605 46.5151 199.897 43.0291 202.418 39.7951C203.689 38.1361 204.918 36.6241 206.147 35.2801C206.564 34.8601 206.876 34.4191 207.251 33.9991C207.897 33.1801 208.543 32.3821 209.397 31.6891C209.439 31.6261 209.772 31.4161 210.147 31.4161H210.355L210.397 31.4791C210.501 31.4791 210.668 31.5841 210.772 31.7941C211.897 33.6631 208.647 45.2131 208.001 47.4811C206.564 52.3741 204.918 57.2461 203.376 61.9921C201.022 69.0271 198.564 76.2721 196.814 83.7901C196.751 83.8951 196.709 84.1051 196.605 84.2731C196.439 84.6511 196.272 85.0291 196.439 85.3021C196.501 85.4491 196.605 85.5541 196.751 85.6801C196.98 85.7851 197.189 85.8271 197.293 85.8271C197.73 85.8271 197.834 85.3021 197.939 84.8191C197.98 84.6511 197.98 84.4831 198.043 84.3781C199.855 79.3381 201.605 74.4451 203.209 69.4471C203.855 67.5151 204.48 65.5831 205.126 63.6511C207.959 55.1671 210.876 46.4101 212.439 37.0651C212.689 35.1751 213.022 33.3061 212.272 31.2061C211.897 30.0301 211.314 29.4841 210.564 29.4841C210.251 29.4841 209.918 29.5471 209.605 29.6941C208.168 30.3451 207.147 31.4161 206.189 32.5501C200.814 38.8921 196.168 45.9691 191.751 52.7941C190.251 55.0621 188.814 57.2461 187.376 59.4511C186.418 60.8581 185.418 61.4461 183.751 61.4461C183.751 61.4461 182.793 61.3831 182.418 61.3831C178.918 61.3831 175.334 61.9291 171.439 62.9581L171.126 63.0631C170.376 63.2101 169.751 63.3781 169.793 64.1761C169.793 64.7851 170.272 65.1001 171.022 65.5201C171.189 65.6251 171.334 65.6881 171.501 65.7931C173.793 67.2421 175.23 69.1321 175.876 71.6521C176.668 74.7181 176.459 77.1751 175.168 79.2751C173.689 81.7531 171.814 85.0291 170.48 88.5781C170.439 88.7881 170.376 88.9561 170.272 89.1031C169.855 90.0271 169.626 90.6151 170.439 91.2031C170.709 91.3711 170.918 91.4761 171.126 91.4761ZM184.668 62.6851L185.084 62.7271L177.522 75.0331L177.418 74.3821C176.98 70.5181 175.501 67.6831 172.73 65.5201C172.084 65.0371 171.918 64.6591 171.98 64.4491C171.98 64.2391 172.084 63.9661 172.772 63.8191C175.709 63.2101 178.793 62.5801 182.272 62.5801C183.064 62.5801 183.855 62.6221 184.668 62.6851Z" fill="#DA4F7C"/>
<path d="M231.997 25.6199C231.664 25.3469 231.414 25.2419 231.185 25.2419C230.768 25.2419 230.497 25.6199 230.185 25.9979C230.122 26.1029 230.018 26.2499 229.914 26.3759C224.268 32.5499 220.685 40.2359 216.955 47.8589C210.351 61.2779 203.685 75.8519 202.31 91.8959L202.247 92.4839C202.101 94.2689 201.935 96.1379 202.518 98.0909C203.06 99.9599 204.289 100.884 206.247 100.884H206.351C206.726 100.884 207.164 100.758 207.101 100.065C207.06 99.8549 206.935 99.5819 206.789 99.4139C206.685 99.3089 206.518 99.2669 206.351 99.2039C205.56 99.0989 204.914 98.8889 204.539 98.4479C204.018 97.8599 204.06 97.0619 204.06 96.3689C204.06 96.1379 204.06 95.9909 204.06 95.8229C203.955 91.4129 204.539 86.9609 205.872 81.6899C209.601 66.7169 216.101 52.5839 223.935 39.7949C225.705 36.8969 227.518 34.1039 229.435 31.3529C229.476 31.2479 229.539 31.2059 229.539 31.1429C230.33 30.0299 231.08 28.8959 231.935 27.8669C232.518 27.0059 232.851 26.3759 231.997 25.6199Z" fill="#DA4F7C"/>
<path d="M237.957 63.6512C237.311 63.1052 232.728 67.4522 232.04 67.9352C229.957 69.5102 227.623 70.8542 224.894 71.4842C223.623 71.8202 221.915 72.3452 220.644 71.0642C219.415 69.8252 220.436 68.5862 220.853 67.5152C222.498 63.4832 224.748 59.8922 227.04 56.2802C227.311 55.7552 227.998 55.1672 227.04 54.4112C226.123 53.6552 225.644 54.4112 225.228 54.8312C221.978 58.4432 219.623 62.6852 218.29 67.5782C217.915 68.9222 217.873 70.5812 219.478 71.9672C221.019 73.3742 222.561 73.1012 223.998 72.7232C227.415 71.8622 230.457 70.2452 233.103 68.3762C234.436 67.4102 235.728 66.3812 236.957 65.3102C237.269 65.0372 238.123 64.6172 238.123 64.0712C238.123 63.8612 238.061 63.6932 237.957 63.6512ZM229.332 51.8282C230.498 51.7232 231.29 51.2822 231.248 50.1062C230.936 48.9932 230.228 48.6152 229.373 48.7202C228.165 48.7622 227.457 49.3082 227.79 50.6942C228.04 51.6182 228.582 51.9332 229.332 51.8282Z" fill="#DA4F7C"/>
<path d="M266.316 63.1681C266.211 63.0631 266.149 63.0631 266.045 63.0631C265.732 63.0631 265.461 63.5461 265.295 63.8611L265.253 64.0291C263.92 66.5491 261.836 68.5861 260.191 70.2451C258.211 72.2401 255.816 74.3821 252.503 75.4111C252.253 75.5161 251.92 75.6211 251.649 75.6211C251.295 75.6211 250.961 75.4741 250.691 75.2011C250.211 74.7181 250.441 74.1721 250.586 73.7941L250.691 73.5841C250.92 72.9331 251.17 72.3031 251.441 71.7151C251.92 70.5811 252.399 69.4051 252.732 68.1661C252.982 67.2001 252.774 66.3391 252.253 65.6881C251.711 65.1001 250.961 64.7851 250.003 64.7851C249.836 64.7851 249.628 64.7851 249.482 64.8271C248.149 64.9951 246.816 65.3731 245.378 66.0031C244.149 66.4861 242.961 66.9691 241.857 67.5151C241.482 67.7251 241.17 67.9351 240.795 68.1661C240.524 68.3761 240.253 68.5861 239.941 68.7541C239.67 68.8591 239.024 69.1321 238.545 69.1321C238.336 69.1321 238.17 69.0691 238.066 68.9641C237.753 68.6911 237.899 68.3131 237.961 68.2081L239.836 63.3151C239.878 63.2101 239.941 63.0631 240.045 62.8951C240.316 62.2441 240.836 61.1311 240.524 60.4171C240.42 60.2071 240.253 60.1021 240.045 59.9341C239.878 59.8921 239.774 59.8921 239.67 59.8921C239.399 59.8921 239.191 60.1651 239.024 60.4171L238.92 60.5851C237.42 62.8951 236.316 65.5201 235.732 68.4811L235.67 68.6911C235.503 69.3421 235.357 69.9301 236.107 70.5811C236.461 70.8961 236.795 71.0641 237.107 71.0641C237.482 71.0641 237.857 70.8541 238.17 70.6861L238.336 70.5811C239.086 70.2031 239.774 69.8251 240.461 69.4051C242.003 68.5441 243.67 67.6201 245.482 66.9691C246.857 66.4861 248.253 66.1291 249.628 65.7931C249.836 65.7511 250.003 65.7511 250.107 65.7511C250.545 65.7511 250.857 65.8561 251.128 66.1711C251.607 66.6541 251.399 67.0951 251.295 67.3471L251.17 67.5151C251.024 67.9981 250.753 68.3761 250.482 68.7961L250.003 69.6571C249.253 70.8961 248.524 72.1981 248.524 73.8571C248.524 74.7601 248.732 75.4741 249.211 75.9571C249.691 76.3771 250.378 76.6501 251.295 76.6501H251.399C252.295 76.5871 252.941 76.4821 253.524 76.1041C259.003 72.9961 263.107 69.2371 266.045 64.6591C266.107 64.5541 266.211 64.4491 266.316 64.3441C266.524 64.0711 266.795 63.8611 266.691 63.5881C266.691 63.4411 266.524 63.3151 266.316 63.1681Z" fill="#DA4F7C"/>
<path d="M292.593 61.6561C292.385 61.6561 292.051 61.9291 291.843 62.0971L291.676 62.2021C291.197 62.4751 290.822 62.8321 290.405 63.1681C290.197 63.3781 289.968 63.5461 289.718 63.6931C289.239 64.0711 288.801 64.4491 288.322 64.8271C287.676 65.3731 287.051 65.8981 286.364 66.4441C284.28 67.9351 282.03 69.6151 279.739 71.1691C279.426 71.3791 278.301 71.9671 277.551 71.9671C277.447 71.9671 277.343 71.9671 277.239 71.9251C277.072 71.8621 276.968 71.8201 276.926 71.6521C276.822 71.4841 276.822 71.2321 276.926 70.8541L277.239 70.0981C277.51 69.2371 277.822 68.3761 278.197 67.5781L279.155 65.5831C280.385 63.0631 281.614 60.4801 282.78 57.8971C283.093 57.3091 283.26 56.8261 282.614 56.3431C282.405 56.1331 282.197 56.0281 281.926 56.0281C281.614 56.0281 281.301 56.1751 280.968 56.3431C280.551 56.5111 280.176 56.7631 279.843 57.0991L279.697 57.2461C279.26 57.6871 278.843 58.0651 278.26 58.0651C277.718 58.0651 277.135 57.6241 276.447 56.7211C276.01 56.1331 275.114 56.1331 274.197 56.0701H273.989C271.864 56.0701 270.155 56.9311 268.551 58.6531C266.364 61.1311 264.885 64.1341 264.03 67.5151L263.926 67.8931C263.593 69.2371 263.176 70.7281 264.718 71.8201C265.093 72.0721 265.468 72.2401 265.843 72.2401C266.635 72.2401 267.322 71.5891 267.968 71.0641L268.385 70.6861C270.468 69.0271 272.176 66.9691 273.885 64.9951C274.635 64.0711 275.385 63.1681 276.176 62.3071C276.343 62.0971 276.551 61.9291 276.718 61.7191L277.072 61.3411L277.197 61.5091C277.676 61.9921 277.885 62.0341 277.989 62.0341C278.197 62.0341 278.197 61.5511 278.197 61.2361V61.0681C278.26 59.9341 278.843 59.0731 279.364 58.4851C279.364 58.4851 280.447 57.3091 281.135 57.3091C281.239 57.3091 281.343 57.3721 281.405 57.3721C281.551 57.4771 281.655 57.5821 281.718 57.7291C281.989 58.3801 281.343 59.4511 280.697 60.3751C280.593 60.5221 280.551 60.6901 280.489 60.7531C280.218 61.2781 278.885 63.7561 278.885 63.7561C277.885 65.6251 276.864 67.7251 276.239 70.0351C276.176 70.2031 276.114 70.3711 276.072 70.5181C275.739 71.3371 275.53 72.0721 276.489 72.8911C276.864 73.2061 277.239 73.3741 277.614 73.3741C278.093 73.3741 278.51 73.1011 278.947 72.8911L279.26 72.6811C284.551 69.7621 289.01 66.3391 292.635 62.4751C292.864 62.2441 292.968 61.9921 292.905 61.8241C292.864 61.7191 292.739 61.7191 292.593 61.6561ZM276.968 59.6191C275.864 60.8581 274.78 62.2021 273.78 63.4831C271.593 66.1711 269.301 69.0271 266.218 70.8961C266.051 71.0011 265.885 71.0641 265.739 71.0641C265.572 71.0641 265.405 71.0011 265.26 70.8961C264.78 70.4131 264.885 69.2371 264.926 68.8591C265.135 68.0611 265.572 67.3471 265.947 66.7171C266.093 66.3811 266.26 66.1291 266.426 65.8561C267.864 63.1051 269.614 60.0391 272.76 58.1701C273.405 57.7921 274.197 57.5191 275.051 57.3721C275.155 57.3091 275.218 57.3091 275.322 57.3091C275.905 57.3091 276.551 57.6871 276.968 58.2121C277.343 58.7581 277.343 59.2411 276.968 59.6191Z" fill="#DA4F7C"/>
<path d="M331.943 95.277C332.297 95.277 332.631 95.067 332.901 94.752L333.006 94.584C333.318 94.164 333.693 93.681 333.964 93.198C337.11 87.339 339.026 80.409 339.714 71.967C340.297 64.617 341.797 63.21 349.297 63.21C350.318 63.21 351.339 63.168 352.401 63.168C353.401 63.168 354.422 63.168 355.485 63.168C356.61 63.168 357.735 63.168 359.11 63.21C359.214 63.21 359.422 63.273 359.651 63.273C360.131 63.273 360.172 63.168 360.172 63C360.026 62.832 359.318 62.622 358.526 62.517C355.276 62.244 352.026 62.097 348.881 61.992L347.985 61.929L346.964 61.866C346.214 61.866 345.464 61.866 344.672 61.761C344.61 61.761 344.506 61.719 344.401 61.719C344.193 61.656 343.922 61.614 343.61 61.614C343.547 61.614 343.506 61.614 343.443 61.614L343.068 61.383L345.214 56.133C349.089 46.683 352.776 37.758 356.818 28.896C357.089 28.413 357.401 27.93 358.256 27.867L360.506 27.72C363.422 27.489 366.526 27.279 369.568 27.279C371.318 27.279 372.922 27.342 374.464 27.489L375.797 27.594C379.256 27.93 382.881 28.245 386.506 29.904C386.672 29.967 386.881 30.135 387.089 30.24C387.401 30.45 387.735 30.66 387.943 30.66C388.006 30.66 388.151 30.66 388.256 30.177C388.36 29.799 388.318 29.274 386.881 28.518C386.131 28.14 385.339 27.93 384.693 27.762C380.526 26.691 376.381 26.103 372.276 26.103H370.256C369.339 26.103 368.381 26.04 367.485 26.04C364.818 26.04 361.61 26.145 358.36 26.733L357.943 26.859C357.943 26.859 358.318 25.83 358.36 25.62C358.464 25.347 358.526 25.179 358.589 24.969C358.631 24.486 358.901 24.003 359.11 23.583C359.422 22.932 359.756 22.239 359.547 21.693C359.422 21.483 359.214 21.315 358.901 21.105C358.693 21 358.526 21 358.36 21C357.36 21 356.547 22.659 356.443 24.276C356.297 25.893 355.485 26.691 353.839 26.859C349.297 27.279 344.714 27.762 340.256 28.308C332.256 29.211 325.797 30.24 320.006 31.416L319.631 31.479C318.61 31.689 317.714 31.857 317.756 32.97C317.818 34.146 318.818 34.65 319.881 35.175L320.318 35.385C329.693 40.173 335.297 47.859 337.901 59.556C338.276 61.173 337.797 61.992 336.401 61.992C336.256 61.992 336.151 61.992 335.985 61.992C335.401 61.929 334.86 61.866 334.339 61.866C332.839 61.866 331.464 62.034 330.068 62.202C328.839 62.307 327.61 62.475 326.401 62.517H326.172C325.381 62.517 324.839 62.58 325.006 63.168C325.068 63.378 325.172 63.546 325.318 63.651C325.422 63.756 325.651 63.819 325.922 63.819C326.068 63.819 326.235 63.819 326.401 63.756C326.547 63.756 326.714 63.756 326.881 63.756C328.631 63.756 330.443 63.756 332.256 63.756H338.276L338.339 63.966C338.693 65.751 338.589 67.41 338.068 69.027C336.089 74.382 334.276 79.821 332.526 85.071C331.61 87.927 330.818 90.51 330.61 93.345C330.547 94.164 330.547 94.647 331.235 95.067C331.506 95.172 331.714 95.277 331.943 95.277ZM336.526 79.485L336.943 79.653C336.735 83.79 335.506 87.507 333.276 90.678L332.901 90.447L336.526 79.485ZM354.839 28.245L354.631 28.623C351.235 35.616 348.235 42.693 345.36 49.518C343.61 53.655 341.901 57.729 340.089 61.824L339.818 62.412L339.651 61.719C338.547 55.692 336.631 50.547 333.797 45.969C330.756 40.929 326.401 37.002 320.11 33.558L319.568 33.306L320.047 33.18C333.276 30.618 343.818 29.106 354.422 28.308L354.839 28.245Z" fill="#DA4F7C"/>
<path d="M381.709 63.6512C381.063 63.1052 376.48 67.4522 375.792 67.9352C373.709 69.5102 371.376 70.8542 368.647 71.4842C367.376 71.8202 365.667 72.3452 364.397 71.0642C363.167 69.8252 364.188 68.5862 364.605 67.5152C366.251 63.4832 368.501 59.8922 370.792 56.2802C371.063 55.7552 371.751 55.1672 370.792 54.4112C369.876 53.6552 369.397 54.4112 368.98 54.8312C365.73 58.4432 363.376 62.6852 362.042 67.5782C361.667 68.9222 361.626 70.5812 363.23 71.9672C364.772 73.3742 366.313 73.1012 367.751 72.7232C371.167 71.8622 374.209 70.2452 376.855 68.3762C378.188 67.4102 379.48 66.3812 380.709 65.3102C381.022 65.0372 381.876 64.6172 381.876 64.0712C381.876 63.8612 381.813 63.6932 381.709 63.6512ZM373.084 51.8282C374.251 51.7232 375.042 51.2822 375.001 50.1062C374.688 48.9932 373.98 48.6152 373.126 48.7202C371.917 48.7622 371.209 49.3082 371.542 50.6942C371.792 51.6182 372.334 51.9332 373.084 51.8282Z" fill="#DA4F7C"/>
<path d="M403.464 25.6199C403.13 25.3469 402.88 25.2419 402.651 25.2419C402.235 25.2419 401.964 25.6199 401.651 25.9979C401.589 26.1029 401.485 26.2499 401.38 26.3759C395.735 32.5499 392.151 40.2359 388.422 47.8589C381.818 61.2779 375.151 75.8519 373.776 91.8959L373.714 92.4839C373.568 94.2689 373.401 96.1379 373.985 98.0909C374.526 99.9599 375.755 100.884 377.714 100.884H377.818C378.193 100.884 378.63 100.758 378.568 100.065C378.526 99.8549 378.401 99.5819 378.255 99.4139C378.151 99.3089 377.985 99.2669 377.818 99.2039C377.026 99.0989 376.38 98.8889 376.005 98.4479C375.485 97.8599 375.526 97.0619 375.526 96.3689C375.526 96.1379 375.526 95.9909 375.526 95.8229C375.422 91.4129 376.005 86.9609 377.339 81.6899C381.068 66.7169 387.568 52.5839 395.401 39.7949C397.172 36.8969 398.985 34.1039 400.901 31.3529C400.943 31.2479 401.005 31.2059 401.005 31.1429C401.797 30.0299 402.547 28.8959 403.401 27.8669C403.985 27.0059 404.318 26.3759 403.464 25.6199Z" fill="#DA4F7C"/>
<path d="M409.423 63.6512C408.778 63.1052 404.194 67.4522 403.507 67.9352C401.423 69.5102 399.09 70.8542 396.361 71.4842C395.09 71.8202 393.382 72.3452 392.111 71.0642C390.882 69.8252 391.903 68.5862 392.319 67.5152C393.965 63.4832 396.215 59.8922 398.507 56.2802C398.778 55.7552 399.465 55.1672 398.507 54.4112C397.59 53.6552 397.111 54.4112 396.694 54.8312C393.444 58.4432 391.09 62.6852 389.757 67.5782C389.382 68.9222 389.34 70.5812 390.944 71.9672C392.486 73.3742 394.028 73.1012 395.465 72.7232C398.882 71.8622 401.923 70.2452 404.569 68.3762C405.903 67.4102 407.194 66.3812 408.423 65.3102C408.736 65.0372 409.59 64.6172 409.59 64.0712C409.59 63.8612 409.528 63.6932 409.423 63.6512ZM400.798 51.8282C401.965 51.7232 402.757 51.2822 402.715 50.1062C402.403 48.9932 401.694 48.6152 400.84 48.7202C399.632 48.7622 398.923 49.3082 399.257 50.6942C399.507 51.6182 400.048 51.9332 400.798 51.8282Z" fill="#DA4F7C"/>
<path d="M433.241 62.202C433.136 62.202 433.032 62.202 432.991 62.202C432.241 62.349 431.595 62.58 430.949 62.832C430.595 62.958 430.261 63.063 429.949 63.168C429.303 63.378 428.72 63.588 428.136 63.819L427.345 64.071C427.22 64.134 426.97 64.176 426.699 64.239C426.116 64.407 424.928 64.659 424.886 64.785L424.511 64.659L424.616 64.071C424.678 63.756 424.678 63.483 424.72 63.105C424.782 61.761 424.824 60.48 423.386 59.409C422.761 58.863 422.116 58.653 421.47 58.653C420.782 58.653 420.136 58.863 419.553 59.136C417.907 59.787 416.574 60.858 415.136 62.307C413.907 63.483 412.845 64.827 411.782 66.171C410.761 67.452 409.741 68.796 408.532 69.993L408.261 69.72L408.47 69.132C408.636 68.754 408.782 68.313 409.011 67.893L411.178 62.832C413.116 58.443 415.074 53.97 416.949 49.581C416.991 49.476 417.053 49.308 417.157 49.203C417.532 48.489 417.699 48.006 416.886 47.418C416.678 47.313 416.511 47.208 416.366 47.208C416.032 47.208 415.824 47.481 415.616 47.754C415.511 47.964 415.345 48.174 415.136 48.342C414.178 48.867 414.074 49.896 413.949 50.967C413.907 51.555 413.803 52.269 413.595 52.794L413.324 53.34C410.761 58.758 408.157 64.407 405.699 70.035C401.657 79.065 388.761 107.583 385.241 116.886L385.178 117.096C385.011 117.537 384.803 118.02 384.97 118.44C385.074 118.65 385.282 118.818 385.553 118.986C385.866 119.133 386.136 119.238 386.345 119.238C386.949 119.238 387.428 118.818 387.47 118.167C387.574 116.781 388.116 115.584 388.636 114.471C388.866 113.925 389.116 113.4 389.282 112.854C393.345 101.304 407.678 72.828 414.324 65.268C416.032 63.378 417.907 61.509 420.616 60.522C420.949 60.375 421.303 60.312 421.574 60.312C421.949 60.312 422.282 60.417 422.491 60.648C422.866 61.005 422.97 61.551 422.97 62.349C422.803 64.617 422.324 66.339 420.303 67.305C416.511 69.027 413.595 71.001 411.407 73.311C411.241 73.479 411.136 73.584 410.97 73.752C410.011 74.655 408.949 75.726 410.282 77.175C410.761 77.721 411.345 77.994 411.928 77.994C412.782 77.994 413.636 77.448 414.386 77.028L414.595 76.923C417.949 74.928 420.678 71.967 423.011 67.83C423.491 66.969 424.136 66.444 424.886 66.129C426.532 65.478 428.178 64.827 429.886 64.176C430.532 63.966 431.282 63.819 431.97 63.651C432.991 63.441 434.053 63.21 434.907 62.685C435.116 62.58 435.116 62.517 435.116 62.517C435.011 62.349 434.157 62.202 433.241 62.202ZM413.157 76.818C412.845 76.965 412.261 77.133 411.72 77.133C411.303 77.133 410.97 77.028 410.761 76.755C410.553 76.482 410.553 76.167 410.699 75.684C411.241 74.235 412.741 73.206 414.011 72.345C414.282 72.198 414.491 72.03 414.761 71.862C415.511 71.274 416.366 70.791 417.324 70.203C417.803 69.993 418.282 69.72 418.761 69.447C418.866 69.447 419.011 69.405 419.178 69.342C419.449 69.237 419.866 69.069 419.991 68.922L420.303 69.132C418.428 72.891 416.199 75.348 413.157 76.818Z" fill="#DA4F7C"/>
</g>
<defs>
<clipPath id="clip0_88_97">
<rect width="500" height="137" fill="white"/>
</clipPath>
</defs>
</svg>
